<?xml version="1.0" encoding="UTF-8"?>
<!DOCTYPE svg PUBLIC "-//W3C//DTD SVG 1.1//EN" "http://www.w3.org/Graphics/SVG/1.1/DTD/svg11.dtd">
<svg version="1.1" xmlns="http://www.w3.org/2000/svg" xmlns:xlink="http://www.w3.org/1999/xlink" x="0" y="0" width="953" height="698" viewBox="0, 0, 953, 698">
  <defs>
    <linearGradient id="Gradient_1" gradientUnits="userSpaceOnUse" x1="367.191" y1="127.59" x2="378.525" y2="200.257">
      <stop offset="0" stop-color="#DB3C33"/>
      <stop offset="0.495" stop-color="#DB3C33"/>
      <stop offset="1" stop-color="#F1C486"/>
    </linearGradient>
    <linearGradient id="Gradient_2" gradientUnits="userSpaceOnUse" x1="248.985" y1="168.901" x2="276.319" y2="100.234">
      <stop offset="0" stop-color="#F1C486"/>
      <stop offset="0.505" stop-color="#DB3C33"/>
      <stop offset="1" stop-color="#DB3C33"/>
    </linearGradient>
    <linearGradient id="Gradient_3" gradientUnits="userSpaceOnUse" x1="889.214" y1="616.09" x2="900.547" y2="688.757">
      <stop offset="0" stop-color="#ECC343"/>
      <stop offset="0.495" stop-color="#ECC343"/>
      <stop offset="1" stop-color="#EEDA58"/>
    </linearGradient>
    <linearGradient id="Gradient_4" gradientUnits="userSpaceOnUse" x1="771.008" y1="657.401" x2="798.342" y2="588.734">
      <stop offset="0" stop-color="#EEDA58"/>
      <stop offset="0.505" stop-color="#ECC343"/>
      <stop offset="1" stop-color="#ECC343"/>
    </linearGradient>
    <linearGradient id="Gradient_5" gradientUnits="userSpaceOnUse" x1="100.378" y1="63.72" x2="18.589" y2="200.701">
      <stop offset="0" stop-color="#E87F3E"/>
      <stop offset="0.567" stop-color="#DA2F2E"/>
      <stop offset="1" stop-color="#DA2F2E"/>
    </linearGradient>
    <clipPath id="Clip_1">
      <path d="M46.284,56.964 C54.915,62.046 64.377,65.785 74.558,65.264 C80.115,64.98 85.374,63.523 90.619,61.79 C87.329,70.73 77.838,83.85 67.398,84.29 C80.918,84.21 96.779,82.25 99.678,67.52 C98.838,79.71 113.579,90.69 122.619,94.79 L123.838,94.21 C119.188,84.43 119.789,73.71 109.489,67.76 C113.68,69.963 117.506,71.378 121.236,72.241 C121.688,72.345 122.438,73.25 122.438,73.25 C134.119,89.6 141.598,111.58 137.119,132.29 C131.819,156.8 109.409,172.82 88.999,184.3 C69.319,195.38 36.119,205.54 16.789,196.89 C-3.202,187.96 -1.011,135.86 1.819,114.73 C4.428,95.2 8.539,73.63 24.869,60.54 C29.569,56.77 34.829,53.87 40.378,51.77 C50.079,48.1 60.699,46.84 70.919,47.51 C72.968,49.91 75.398,51.78 78.109,52.75 C71.298,52.42 65.428,54.22 59.418,55.79 C54.329,57.12 48.449,56.64 43.279,55.15 L46.284,56.964 z"/>
    </clipPath>
    <linearGradient id="Gradient_6" gradientUnits="userSpaceOnUse" x1="20.663" y1="383.174" x2="74.663" y2="283.173">
      <stop offset="0" stop-color="#F3C68A"/>
      <stop offset="0.062" stop-color="#F3C68A"/>
      <stop offset="0.69" stop-color="#DA4569"/>
      <stop offset="1" stop-color="#DA4569"/>
    </linearGradient>
    <clipPath id="Clip_2">
      <path d="M51.784,271.229 C63.775,271.398 73.189,275.411 78.2,286.835 C90.04,285.536 101.55,291.696 109.32,301.395 L109.73,301.415 C109,314.456 109.09,326.296 109.09,326.876 C93.83,322.036 78.18,331.376 70.56,345.995 C63.6,359.335 63.55,375.036 68.8,389.354 L67.35,389.425 C59.77,390.935 52.02,390.925 44.58,389.056 C24.96,384.116 6.34,368.765 1.52,347.876 C0.323,343.251 0.248,338.504 -0,333.765 L-0,333.755 C0.849,312.849 7.59,290.112 26.33,278.446 C31.855,275.311 37.892,273.065 44.163,271.974 C46.678,271.536 49.244,271.477 51.784,271.229 z"/>
    </clipPath>
    <linearGradient id="Gradient_7" gradientUnits="userSpaceOnUse" x1="150.572" y1="434.282" x2="109.239" y2="323.616">
      <stop offset="0" stop-color="#F3C68A"/>
      <stop offset="0.562" stop-color="#DD5673"/>
      <stop offset="1" stop-color="#DD5673"/>
    </linearGradient>
    <linearGradient id="Gradient_8" gradientUnits="userSpaceOnUse" x1="441.211" y1="413.014" x2="376.545" y2="304.348">
      <stop offset="0" stop-color="#916099"/>
      <stop offset="0.562" stop-color="#444388"/>
      <stop offset="1" stop-color="#444388"/>
    </linearGradient>
    <linearGradient id="Gradient_9" gradientUnits="userSpaceOnUse" x1="295.725" y1="433.618" x2="347.059" y2="316.284">
      <stop offset="0" stop-color="#9B6EA2"/>
      <stop offset="0.562" stop-color="#545191"/>
      <stop offset="1" stop-color="#545191"/>
    </linearGradient>
    <linearGradient id="Gradient_10" gradientUnits="userSpaceOnUse" x1="648.894" y1="277.1" x2="591.56" y2="448.434">
      <stop offset="0" stop-color="#9AC64C"/>
      <stop offset="0.438" stop-color="#9AC64C"/>
      <stop offset="1" stop-color="#D9D74E"/>
    </linearGradient>
    <linearGradient id="Gradient_11" gradientUnits="userSpaceOnUse" x1="601.997" y1="188.29" x2="601.997" y2="24.26">
      <stop offset="0" stop-color="#8C5995"/>
      <stop offset="0.657" stop-color="#723C84"/>
      <stop offset="1" stop-color="#723C84"/>
    </linearGradient>
    <linearGradient id="Gradient_12" gradientUnits="userSpaceOnUse" x1="567.978" y1="209.5" x2="567.978" y2="73.02">
      <stop offset="0" stop-color="#B488B1"/>
      <stop offset="0.676" stop-color="#885190"/>
      <stop offset="1" stop-color="#885190"/>
    </linearGradient>
    <linearGradient id="Gradient_13" gradientUnits="userSpaceOnUse" x1="573.761" y1="205.66" x2="573.761" y2="31.93">
      <stop offset="0" stop-color="#A574A5"/>
      <stop offset="0.69" stop-color="#89508F"/>
      <stop offset="1" stop-color="#89508F"/>
    </linearGradient>
    <linearGradient id="Gradient_14" gradientUnits="userSpaceOnUse" x1="579.032" y1="178.94" x2="579.032" y2="39.44">
      <stop offset="0" stop-color="#BF93B7"/>
      <stop offset="0.919" stop-color="#93629A"/>
      <stop offset="1" stop-color="#93629A"/>
    </linearGradient>
    <linearGradient id="Gradient_15" gradientUnits="userSpaceOnUse" x1="595.199" y1="676.79" x2="595.199" y2="512.761">
      <stop offset="0" stop-color="#9CC750"/>
      <stop offset="0.657" stop-color="#71B848"/>
      <stop offset="1" stop-color="#71B848"/>
    </linearGradient>
    <linearGradient id="Gradient_16" gradientUnits="userSpaceOnUse" x1="561.18" y1="698" x2="561.18" y2="561.521">
      <stop offset="0" stop-color="#B8D467"/>
      <stop offset="0.676" stop-color="#94C55B"/>
      <stop offset="1" stop-color="#94C55B"/>
    </linearGradient>
    <linearGradient id="Gradient_17" gradientUnits="userSpaceOnUse" x1="566.965" y1="694.16" x2="566.965" y2="520.431">
      <stop offset="0" stop-color="#9BC74E"/>
      <stop offset="0.69" stop-color="#AECE51"/>
      <stop offset="1" stop-color="#AECE51"/>
    </linearGradient>
    <linearGradient id="Gradient_18" gradientUnits="userSpaceOnUse" x1="572.234" y1="667.44" x2="572.234" y2="527.94">
      <stop offset="0" stop-color="#CFDE7B"/>
      <stop offset="0.919" stop-color="#A8CE70"/>
      <stop offset="1" stop-color="#A8CE70"/>
    </linearGradient>
    <linearGradient id="Gradient_19" gradientUnits="userSpaceOnUse" x1="814.569" y1="214.007" x2="890.569" y2="19.341">
      <stop offset="0" stop-color="#F1D581"/>
      <stop offset="1" stop-color="#E579A5"/>
    </linearGradient>
    <clipPath id="Clip_3">
      <path d="M858.726,14.445 C898.765,16.871 934.128,41.323 947.563,79.29 C962.753,124.43 944.223,177.21 909.223,196.29 C878.743,212.9 833.883,206.64 813.233,187.42 L813.243,187.11 C803.333,186.86 792.813,183.22 782.033,175.18 C739.693,143.58 746.713,65.88 796.093,32.54 C811.271,22.282 828.958,15.905 847.272,14.599 C851.081,14.328 854.908,14.496 858.726,14.445 z"/>
    </clipPath>
    <linearGradient id="Gradient_20" gradientUnits="userSpaceOnUse" x1="864.88" y1="451.779" x2="851.547" y2="283.113">
      <stop offset="0" stop-color="#F0D17A"/>
      <stop offset="0.002" stop-color="#F0D17A"/>
      <stop offset="0.667" stop-color="#DA3635"/>
      <stop offset="1" stop-color="#DA3635"/>
    </linearGradient>
    <clipPath id="Clip_4">
      <path d="M885.313,276.943 C934.131,276.994 956.202,330.669 952.281,372.943 C948.141,408.593 912.641,454.913 877.441,440.373 C874.911,439.333 868.141,439.163 864.931,438.203 C834.622,450.423 819.881,459.153 785.931,425.293 C759.241,398.673 746.241,313.613 794.471,291.413 C819.341,279.973 832.091,292.873 841.141,293.583 L841.471,293.463 C843.591,299.093 845.211,303.053 845.332,303.323 C847.251,303.413 849.151,303.303 850.981,302.973 L850.981,302.963 C850.931,302.683 850.231,298.193 849.301,292.123 L850.171,291.993 C855.201,290.013 858.931,286.583 863.201,283.543 C866.071,283.763 869.122,283.483 871.971,282.243 C874.251,281.253 876.211,279.523 877.901,277.363 L878.091,277.513 C882.121,277.047 879.717,277.28 885.313,276.943 z"/>
    </clipPath>
    <linearGradient id="Gradient_21" gradientUnits="userSpaceOnUse" x1="112.71" y1="507.214" x2="55.376" y2="678.548">
      <stop offset="0" stop-color="#C7A63D"/>
      <stop offset="0.438" stop-color="#C7A63D"/>
      <stop offset="1" stop-color="#ECBC48"/>
    </linearGradient>
    <linearGradient id="Gradient_22" gradientUnits="userSpaceOnUse" x1="336.526" y1="684.145" x2="323.193" y2="515.479">
      <stop offset="0" stop-color="#D0DE6B"/>
      <stop offset="0.002" stop-color="#D0DE6B"/>
      <stop offset="0.667" stop-color="#96C54C"/>
      <stop offset="1" stop-color="#96C54C"/>
    </linearGradient>
  </defs>
  <g id="Layer_1">
    <path d="M399.338,130.32 C390.449,122.73 378.098,120.89 368.019,125.86 L367.769,125.89 C368.466,130.762 369.118,134.588 369.689,136.86 C368.143,138.389 366.195,138.707 364.162,138.772 C364.071,138.072 363.577,134.268 362.838,128.36 L362.779,128.37 C353.979,129.22 343.979,130.38 337.819,137.31 C330.909,145.08 330.539,159.12 333.128,168.48 C337.899,185.76 355.019,201.52 374.319,200.3 C404.348,198.4 427.539,154.36 399.338,130.32 z" fill="url(#Gradient_1)"/>
    <path d="M366.652,135.207 C366.652,135.207 358.319,130.79 357.319,134.707 C356.319,138.624 362.656,140.332 367.319,138.79 C370.736,137.66 377.902,135.207 375.985,131.374 C374.069,127.54 367.726,132.395 366.652,135.207" fill="#B3292D"/>
    <path d="M304.329,126.42 C303.048,114.92 295.468,105.2 284.888,101.83 L284.848,101.79 C279.423,107.193 275.549,111.171 273.899,112.877 C273.974,112.799 274.039,112.731 274.124,112.644 C272.45,111.906 271.01,110.485 270.195,108.619 C273.012,105.579 275.835,102.593 278.668,99.68 C271.758,94.35 263.779,88.56 254.708,89.37 C244.348,90.3 234.458,100.28 229.939,108.87 C221.579,124.74 223.258,147.95 238.159,160.27 C261.338,179.45 308.399,163.25 304.329,126.42 z" fill="url(#Gradient_2)"/>
    <path d="M271.694,111.457 C271.694,111.457 265.506,102.603 268.881,101.103 C271.878,99.77 274.777,105.29 274.86,108.29 C274.86,108.29 284.694,109.353 282.631,112.478 C279.936,116.561 272.985,112.54 271.694,111.457" fill="#B3292D"/>
    <path d="M430.888,60.16 C412.758,42.54 386.588,10.78 358.809,34.27 C357.128,33.57 355.279,33.53 353.588,34.23 L353.309,34.36 C353.309,34.36 316.109,61.15 278.668,99.68 C275.835,102.593 273.011,105.579 270.195,108.619 C271.01,110.485 272.45,111.906 274.124,112.644 C275.883,110.828 279.652,106.965 284.848,101.79 C300.468,86.23 328.909,58.95 353.729,40.7 C355.508,68.22 360.439,109.23 362.838,128.36 C363.577,134.268 364.071,138.072 364.162,138.772 C366.195,138.707 368.143,138.389 369.689,136.86 C369.118,134.588 368.466,130.761 367.769,125.89 C363.939,98.94 358.809,40.36 358.809,40.36 L359.319,40.36 C368.899,67.62 410.729,67.2 430.888,60.16" fill="#66B445"/>
    <path d="M250.569,112.04 C250.569,112.04 242.319,100.04 254.569,97.415 C266.819,94.79 255.569,108.915 264.319,114.915 C273.069,120.915 262.108,126.857 250.569,112.04" fill="#EEAA5C"/>
    <path d="M353.402,146.457 C351.777,139.582 343.569,134.29 342.944,145.124 C342.307,156.154 357.863,162.104 364.971,155.156 C368.68,151.531 355.639,155.92 353.402,146.457" fill="#EEAA5C"/>
    <path d="M368.444,38.79 C370.733,38.007 373.196,37.91 375.606,37.908 C378.022,37.973 380.437,38.223 382.809,38.671 C387.556,39.56 392.156,41.063 396.566,42.932 C400.978,44.806 405.205,47.062 409.227,49.616 C413.238,52.19 417.079,55.016 420.569,58.29 C416.165,56.42 411.949,54.348 407.708,52.37 C403.481,50.373 399.26,48.428 395.001,46.613 C390.741,44.802 386.442,43.118 382.047,41.712 C379.85,41.015 377.634,40.348 375.373,39.847 C373.113,39.321 370.825,38.888 368.444,38.79" fill="#449144"/>
    <path d="M921.362,618.819 C912.471,611.229 900.122,609.39 890.042,614.36 L889.792,614.39 C890.49,619.262 891.141,623.089 891.711,625.36 C890.167,626.889 888.218,627.208 886.185,627.272 C886.094,626.572 885.6,622.769 884.862,616.86 L884.801,616.87 C876.002,617.72 866.002,618.88 859.842,625.81 C852.932,633.58 852.562,647.62 855.152,656.979 C859.922,674.261 877.042,690.02 896.342,688.8 C926.372,686.899 949.562,642.86 921.362,618.819 z" fill="url(#Gradient_3)"/>
    <path d="M888.675,623.706 C888.675,623.706 880.342,619.29 879.342,623.207 C878.342,627.124 884.678,628.833 889.342,627.29 C892.758,626.159 899.924,623.707 898.008,619.874 C896.092,616.04 889.75,620.895 888.675,623.706" fill="#ED973F"/>
    <path d="M826.352,614.92 C825.072,603.42 817.492,593.7 806.912,590.33 L806.872,590.29 C801.446,595.693 797.573,599.671 795.922,601.377 C795.998,601.299 796.062,601.231 796.147,601.144 C794.473,600.406 793.034,598.985 792.217,597.118 C795.036,594.079 797.859,591.093 800.692,588.181 C793.782,582.851 785.801,577.06 776.732,577.87 C766.372,578.8 756.482,588.78 751.961,597.37 C743.602,613.24 745.282,636.45 760.182,648.77 C783.362,667.95 830.422,651.75 826.352,614.92 z" fill="url(#Gradient_4)"/>
    <path d="M793.717,599.957 C793.717,599.957 787.53,591.103 790.905,589.603 C793.901,588.27 796.799,593.79 796.883,596.79 C796.883,596.79 806.717,597.853 804.655,600.978 C801.959,605.061 795.008,601.04 793.717,599.957" fill="#ED973F"/>
    <path d="M952.912,548.66 C934.782,531.04 908.612,499.28 880.833,522.77 C879.152,522.069 877.301,522.03 875.612,522.729 L875.333,522.86 C875.333,522.86 838.131,549.649 800.692,588.181 C797.859,591.093 795.035,594.079 792.217,597.118 C793.034,598.985 794.473,600.406 796.147,601.144 C797.907,599.327 801.675,595.465 806.872,590.29 C822.492,574.729 850.932,547.45 875.752,529.2 C877.532,556.72 882.461,597.729 884.862,616.86 C885.6,622.769 886.094,626.572 886.185,627.272 C888.218,627.208 890.167,626.889 891.711,625.36 C891.141,623.089 890.49,619.261 889.792,614.39 C885.961,587.44 880.833,528.86 880.833,528.86 L881.342,528.86 C890.922,556.12 932.752,555.7 952.912,548.66" fill="#66B445"/>
    <path d="M772.592,600.54 C772.592,600.54 764.342,588.54 776.592,585.915 C788.842,583.29 777.592,597.415 786.342,603.415 C795.092,609.415 784.131,615.356 772.592,600.54" fill="#EEDD5D"/>
    <path d="M875.425,634.957 C873.8,628.082 865.592,622.79 864.967,633.624 C864.331,644.654 879.886,650.604 886.995,643.656 C890.704,640.031 877.663,644.421 875.425,634.957" fill="#EEDD5D"/>
    <path d="M890.467,527.29 C892.756,526.507 895.219,526.409 897.629,526.407 C900.045,526.473 902.46,526.724 904.833,527.171 C909.579,528.061 914.179,529.563 918.588,531.433 C923,533.306 927.228,535.562 931.25,538.116 C935.26,540.69 939.102,543.516 942.592,546.79 C938.188,544.921 933.972,542.848 929.732,540.87 C925.504,538.873 921.284,536.929 917.024,535.112 C912.764,533.302 908.465,531.618 904.071,530.212 C901.874,529.515 899.657,528.849 897.395,528.347 C895.135,527.821 892.848,527.388 890.467,527.29" fill="#449144"/>
    <path d="M99.678,67.52 C96.779,82.25 80.918,84.21 67.398,84.29 C77.838,83.85 87.329,70.73 90.619,61.79 C71.758,68.51 59.548,65.26 43.279,55.15 C48.449,56.64 54.329,57.12 59.418,55.79 C65.428,54.22 71.298,52.42 78.109,52.75 C75.398,51.78 72.968,49.91 70.919,47.51 C65.638,41.31 62.869,31.57 64.119,24.79 C63.898,37.1 78.619,42.6 88.869,47.54 C84.808,44.02 89.279,29.33 89.279,29.33 C86.678,38.77 98.762,42.368 99.512,50.767 C105.932,42.187 111.174,27.095 106.584,18.226 C106.584,18.226 106.369,17.623 107.119,17.29 C107.869,16.957 115.569,17.73 119.119,19.79 C119.228,30.02 116.159,42.89 105.208,52.65 L105.628,53.11 C112.039,53.92 122.159,50.75 127.018,47.56 C124.228,51.85 119.789,57.57 114.558,58.74 C116.999,58.46 123.458,60.67 129.588,65 C134.088,68.17 138.918,71.11 144.228,72.31 C144.228,72.31 129.428,73.89 122.588,72.53 C118.428,71.71 114.188,70.23 109.489,67.76 C119.789,73.71 119.188,84.43 123.838,94.21 L122.619,94.79 C113.579,90.69 98.838,79.71 99.678,67.52 z M114.548,58.74 C114.398,58.76 114.279,58.79 114.159,58.82 C114.289,58.8 114.418,58.77 114.548,58.74" fill="#5FB345"/>
    <g clip-path="url(#Clip_1)">
      <path d="M67.07,47.35 L70.919,47.51 C72.968,49.91 75.398,51.78 78.109,52.75 C71.298,52.42 65.428,54.22 59.418,55.79 C54.329,57.12 48.449,56.64 43.279,55.15 L46.284,56.964 C54.915,62.046 64.377,65.785 74.559,65.264 C80.115,64.98 85.374,63.523 90.619,61.79 C87.329,70.73 77.838,83.85 67.398,84.29 C80.918,84.21 96.779,82.25 99.678,67.52 C98.838,79.71 113.579,90.69 122.619,94.79 L123.838,94.21 C119.188,84.43 119.789,73.71 109.489,67.76 C113.68,69.963 117.506,71.378 121.236,72.241 C121.688,72.345 122.438,73.25 122.438,73.25 C134.119,89.6 141.598,111.58 137.119,132.29 C131.819,156.8 109.409,172.82 88.999,184.3 C69.319,195.38 36.119,205.54 16.789,196.89 C-3.202,187.96 -1.011,135.86 1.819,114.73 C4.428,95.2 8.539,73.63 24.869,60.54 C29.569,56.77 34.829,53.87 40.378,51.77 C46.455,49.484 52.854,48.132 59.322,47.596 C61.897,47.382 64.488,47.432 67.07,47.35 z" fill="url(#Gradient_5)"/>
    </g>
    <path d="M40.641,173.511 C39.889,175.588 37.596,176.663 35.519,175.912 C33.443,175.16 32.368,172.867 33.119,170.79 C33.87,168.712 39.457,165.028 39.457,165.028 C39.457,165.028 41.392,171.434 40.641,173.511" fill="#EDD748"/>
    <path d="M80.556,162.894 C79.804,164.971 77.512,166.045 75.435,165.294 C73.358,164.542 72.283,162.25 73.034,160.173 C73.786,158.095 79.372,154.411 79.372,154.411 C79.372,154.411 81.308,160.816 80.556,162.894" fill="#EDD748"/>
    <path d="M27.119,145.29 C25.854,147.102 23.361,147.545 21.549,146.282 C19.739,145.017 19.294,142.524 20.558,140.713 C21.822,138.901 28.172,136.79 28.172,136.79 C28.172,136.79 28.382,143.478 27.119,145.29" fill="#EDD748"/>
    <path d="M63.119,141.29 C62.367,143.368 60.074,144.442 57.997,143.691 C55.92,142.939 54.845,140.646 55.596,138.569 C56.347,136.492 61.934,132.808 61.934,132.808 C61.934,132.808 63.87,139.213 63.119,141.29" fill="#EDD748"/>
    <path d="M109.981,143.481 C109.682,145.67 107.666,147.202 105.477,146.904 C103.289,146.604 101.756,144.589 102.055,142.4 C102.354,140.211 107.042,135.436 107.042,135.436 C107.042,135.436 110.28,141.293 109.981,143.481" fill="#EDD748"/>
    <path d="M91.913,117.211 C91.161,119.289 88.869,120.363 86.792,119.612 C84.714,118.86 83.639,116.567 84.39,114.49 C85.142,112.413 90.728,108.728 90.728,108.728 C90.728,108.728 92.665,115.134 91.913,117.211" fill="#EDD748"/>
    <path d="M124.115,115.266 C124.007,117.473 122.132,119.174 119.926,119.068 C117.72,118.96 116.018,117.085 116.125,114.879 C116.232,112.672 120.487,107.508 120.487,107.508 C120.487,107.508 124.222,113.06 124.115,115.266" fill="#EDD748"/>
    <path d="M95.744,50.79 C95.744,50.79 83.843,51.424 93.994,59.29 C103.994,67.04 113.494,60.54 106.994,55.915 C106.994,55.915 108.164,61.343 101.621,60.095 C94.119,58.665 90.01,54.238 95.744,50.79" fill="#43A046"/>
    <path d="M43.05,66.85 C43.05,66.85 26.316,64.956 22.101,82.715 C20.394,89.906 21.473,96.816 24.861,101.925 C28.663,107.657 29.993,79.499 39.748,83.76 C49.502,88.021 63.173,70.887 43.05,66.85" fill="#E98B7D"/>
    <g clip-path="url(#Clip_2)">
      <path d="M51.784,271.229 C63.775,271.398 73.189,275.411 78.2,286.835 C90.04,285.536 101.55,291.696 109.32,301.395 L109.73,301.415 C109,314.456 109.09,326.296 109.09,326.876 C93.83,322.036 78.18,331.376 70.56,345.995 C63.6,359.335 63.55,375.036 68.8,389.354 L67.35,389.425 C59.77,390.935 52.02,390.925 44.58,389.056 C24.96,384.116 6.34,368.765 1.52,347.876 C0.323,343.251 0.248,338.504 -0,333.765 L-0,333.755 C0.848,312.849 7.591,290.113 26.33,278.446 C31.855,275.311 37.892,273.065 44.163,271.974 C46.678,271.536 49.244,271.477 51.784,271.229 z" fill="url(#Gradient_6)"/>
    </g>
    <path d="M109.09,326.876 C109.76,327.085 110.42,327.325 111.09,327.585 C112.65,325.645 114.39,323.956 116.29,322.515 C134.27,308.815 165.69,316.895 177.22,334.755 C192.34,358.155 186.7,398.126 168.12,419.616 C157.03,432.435 140.67,433.755 123.18,432.065 C96.7,429.505 76.71,410.995 68.8,389.354 C63.55,375.036 63.6,359.335 70.56,345.995 C78.18,331.376 93.83,322.036 109.09,326.876 z" fill="url(#Gradient_7)"/>
    <path d="M114.47,316.255 C110.109,311.894 115.637,309.054 117.121,305.081 C116.937,305.349 116.761,305.612 116.6,305.866 C117.58,287.716 120.7,270.925 120.7,270.925 C120.7,270.925 120.49,266.345 118.73,265.735 C116.4,264.915 114.44,270.366 114.44,270.366 C111.74,276.595 110.4,289.505 109.73,301.415 C109,314.456 109.09,326.296 109.09,326.876 C109.76,327.085 110.42,327.325 111.09,327.585 C112.65,325.645 114.39,323.956 116.29,322.515 L116.23,322.446 C116.059,319.36 116.46,314.872 116.502,311.854 C114.471,312.257 114.47,314.499 114.47,316.255" fill="#669A43"/>
    <path d="M155.38,281.216 C147.37,281.024 137.73,284.286 130,291.036 C125.931,294.585 120.1,300.743 117.121,305.081 C115.637,309.054 110.109,311.894 114.47,316.255 C114.47,314.499 114.471,312.257 116.502,311.854 C116.504,311.694 116.51,312.011 116.51,311.854 L117.1,311.854 C124.2,316.274 162.92,315.665 185.16,287.796 C181.77,287.265 166.61,281.476 155.38,281.216" fill="#7FBD4B"/>
    <path d="M139.92,376.52 C138.363,372.513 137.082,368.45 135.743,364.438 C135.047,362.442 134.416,360.433 133.678,358.464 C132.971,356.487 132.25,354.522 131.427,352.604 C129.83,348.751 128.046,344.993 125.855,341.464 C123.665,337.933 121.079,334.644 118.037,331.606 C121.835,333.642 125.115,336.673 127.776,340.126 C130.449,343.585 132.557,347.452 134.2,351.462 C134.999,353.478 135.735,355.513 136.367,357.573 C136.967,359.645 137.552,361.716 137.991,363.817 C138.921,368.009 139.573,372.237 139.92,376.52" fill="#A82D4C"/>
    <path d="M32.893,328.739 C34.648,324.267 36.636,319.874 38.893,315.599 C41.196,311.349 43.807,307.233 46.868,303.421 C49.925,299.632 53.31,295.929 57.513,293.282 C61.676,290.628 66.329,288.698 71.164,287.989 C71.247,287.978 71.324,288.034 71.336,288.118 C71.346,288.183 71.312,288.245 71.257,288.274 C66.975,290.55 62.938,292.921 59.224,295.747 C55.539,298.567 51.859,301.472 48.692,304.979 C45.518,308.464 42.715,312.315 40.19,316.353 C37.617,320.368 35.355,324.593 33.167,328.862 C33.128,328.936 33.039,328.966 32.964,328.929 C32.895,328.894 32.866,328.81 32.893,328.739" fill="#A82D4C"/>
    <path d="M126.803,306.923 C129.284,303.585 132.48,300.823 135.902,298.444 C137.608,297.235 139.429,296.2 141.275,295.208 C143.138,294.251 145.065,293.417 147.025,292.667 C150.959,291.208 155.091,290.272 159.257,289.886 C163.421,289.503 167.632,289.681 171.68,290.571 C167.554,290.929 163.537,291.409 159.594,292.202 C155.655,292.997 151.811,294.108 148.061,295.481 C144.301,296.833 140.67,298.534 137.123,300.431 C133.59,302.364 130.141,304.487 126.803,306.923" fill="#3FA847"/>
    <path d="M79.636,348.923 C85.136,334.089 106.803,330.923 105.303,340.591 C102.31,359.884 90.47,346.421 84.137,356.923 C79.394,364.788 73.154,366.409 79.636,348.923" fill="#EA8D93"/>
    <path d="M37.47,279.257 C44.854,276.604 52.47,278.089 46.47,284.423 C38.118,293.237 30.97,298.757 24.47,293.089 C19.87,289.079 24.47,283.923 37.47,279.257" fill="#EA8D93"/>
    <path d="M386.514,318.573 C388.945,318.044 390.964,316.333 391.464,313.954 L389.934,313.683 C389.934,313.683 385.955,309.813 380.464,304.733 L381.344,304.583 C399.785,296.214 430.144,310.034 444.064,324.144 C470.455,350.913 473.894,397.284 432.384,416.103 C412.584,425.083 383.615,414.304 370.184,390.913 L369.875,390.823 C371.695,384.704 372.834,378.313 373.235,371.923 C374.195,356.544 370.724,338.944 360.964,327.944 C363.825,318.753 368.804,311.513 375.455,307.624 C379.235,311.073 383.084,314.813 386.514,318.573 z" fill="url(#Gradient_8)"/>
    <path d="M341.245,317.134 C342.865,317.493 344.464,317.933 346.054,318.464 C352.115,320.183 357.044,323.534 360.964,327.944 C370.724,338.944 374.195,356.544 373.235,371.923 C372.834,378.313 371.695,384.704 369.875,390.823 C360.665,421.804 334.025,446.224 297.205,432.474 C270.735,422.583 262.354,390.823 269.804,365.964 C280.044,331.823 312.705,310.894 341.245,317.134 z" fill="url(#Gradient_9)"/>
    <path d="M325.294,276.433 L325.304,276.634 C318.764,285.063 317.094,295.474 314.974,305.634 L315.594,306.694 C315.325,306.853 315.054,307.003 314.785,307.163 C310.054,309.894 304.035,310.544 297.695,310.013 L297.804,308.794 C299.314,299.263 302.995,282.993 312.474,278.634 L312.405,278.304 C316.665,277.323 321.004,276.644 325.294,276.433" fill="#69B544"/>
    <path d="M386.617,314.776 C386.617,314.776 379.992,314.901 380.804,318.214 C381.917,322.749 388.429,319.089 389.929,317.651 C391.429,316.214 394.779,309.536 391.511,309.2 C388.319,308.872 387.054,311.026 386.617,314.776" fill="#372F53"/>
    <path d="M312.405,278.304 L312.474,278.634 C302.995,282.993 299.314,299.263 297.804,308.794 L297.695,310.013 C279.334,308.474 258.304,296.964 258.304,296.964 C258.304,296.964 268.554,288.214 293.584,268.364 C318.625,248.522 352.695,280.753 352.695,280.753 C352.695,280.753 382.224,269.272 389.554,265.464 C395.205,262.534 402.794,271.284 394.054,274.964 C385.314,278.644 355.804,283.964 355.804,283.964 C362.594,288.573 372.945,297.784 380.464,304.733 C385.955,309.813 389.934,313.683 389.934,313.683 L391.464,313.954 C390.964,316.333 388.945,318.044 386.514,318.573 C383.084,314.813 379.235,311.073 375.455,307.624 C365.504,298.534 356.054,291.464 356.054,291.464 C357.054,305.964 346.054,318.464 346.054,318.464 C344.464,317.933 342.865,317.493 341.245,317.134 C341.594,316.673 353.525,301.003 351.554,287.214 L346.485,283.714 C346.485,283.714 333.604,296.163 315.594,306.694 L314.974,305.634 C317.094,295.474 318.764,285.063 325.304,276.634 L325.294,276.433 C321.004,276.644 316.665,277.323 312.405,278.304" fill="#69B544"/>
    <path d="M348.949,343.454 C349.577,350.409 349.065,357.45 347.934,364.366 C347.385,367.833 346.574,371.257 345.647,374.649 C344.687,378.034 343.522,381.364 342.199,384.632 C340.826,387.88 339.286,391.061 337.526,394.122 C335.733,397.163 333.796,400.126 331.58,402.872 C327.202,408.397 321.943,413.237 315.989,416.874 C321.191,412.235 325.796,407.093 329.702,401.476 C331.629,398.649 333.454,395.761 335.046,392.737 C336.672,389.737 338.142,386.649 339.429,383.483 C340.765,380.337 341.906,377.108 342.933,373.841 C343.989,370.579 344.84,367.253 345.647,363.911 C347.183,357.208 348.334,350.39 348.949,343.454" fill="#362D6A"/>
    <path d="M392.409,322.474 C395.739,323.116 398.913,324.454 401.948,326.003 C404.966,327.599 407.838,329.499 410.491,331.675 C413.17,333.825 415.59,336.284 417.841,338.882 C420.066,341.503 422.05,344.321 423.84,347.251 C425.586,350.208 427.128,353.28 428.443,356.438 C429.722,359.614 430.851,362.843 431.695,366.145 C433.438,372.733 434.365,379.501 434.459,386.255 C433.123,379.636 431.569,373.122 429.453,366.817 C428.367,363.679 427.221,360.565 425.834,357.563 C424.488,354.548 422.984,351.604 421.269,348.794 C417.909,343.132 413.775,337.942 408.959,333.435 C406.54,331.194 403.961,329.106 401.199,327.263 C398.445,325.407 395.534,323.745 392.409,322.474" fill="#362D6A"/>
    <path d="M339.279,277.585 C333.58,275.415 327.248,274.919 321.144,275.343 C314.989,275.759 308.959,277.134 303.118,278.962 C297.29,280.853 291.635,283.216 286.223,286.022 C280.813,288.825 275.577,291.978 270.779,295.724 C276.226,293.036 281.692,290.501 287.215,288.134 C289.991,286.981 292.75,285.808 295.562,284.774 C298.361,283.71 301.175,282.698 304.028,281.817 C304.337,281.716 304.815,281.661 304.747,281.729 C302.765,283.612 301.686,286.124 300.675,288.495 C299.651,290.882 298.904,293.345 298.335,295.831 C297.794,298.323 297.371,300.823 297.131,303.339 C297.125,303.409 297.169,303.478 297.24,303.499 C297.32,303.522 297.403,303.476 297.426,303.395 C298.133,300.979 298.861,298.581 299.772,296.265 C300.656,293.94 301.656,291.677 302.833,289.546 C304.024,287.407 305.602,285.597 306.978,283.733 C307.994,282.397 309.101,281.171 310.384,279.976 C311.134,279.778 311.88,279.569 312.635,279.39 C315.522,278.655 318.45,278.118 321.388,277.671 C321.862,277.604 321.74,277.62 322.215,277.563 C321.804,278.151 320.455,279.681 319.537,280.981 C318.167,282.884 317.562,285.173 316.901,287.335 C316.229,289.507 315.74,291.706 315.338,293.903 C314.963,296.11 314.609,298.3 314.303,300.505 C314.293,300.573 314.333,300.642 314.401,300.667 C314.479,300.694 314.566,300.655 314.594,300.577 C315.366,298.485 316.029,296.364 316.789,294.288 C317.521,292.206 318.283,290.151 319.151,288.169 C320.028,286.181 321.255,284.419 322.125,282.497 C322.912,280.806 323.751,279.145 324.551,277.298 C329.421,276.813 334.333,276.808 339.279,277.585" fill="#448342"/>
    <path d="M303.805,348.796 C297.585,347.343 310.138,324.296 325.138,329.796 C340.138,335.296 316.638,351.796 303.805,348.796" fill="#7B75A9"/>
    <path d="M392.42,350.716 C383.876,350.716 374.307,334.362 384.307,331.612 C394.307,328.862 400.67,350.716 392.42,350.716" fill="#7B75A9"/>
    <path d="M644.855,299.733 C644.855,299.733 648.345,287.413 653.116,277.694 C686.834,291.003 687.196,323.753 686.565,350.653 C694.765,389.323 688.425,440.354 647.485,450.704 C616.675,458.493 567.776,449.464 546.446,416.364 C525.155,383.323 538.395,338.903 573.196,319.444 C584.305,305.804 596.925,290.604 610.605,281.663 C618.675,283.093 627.415,281.854 636.235,275.864 C636.235,275.864 641.405,278.513 642.786,282.034 C642.786,282.044 642.786,282.044 642.786,282.044 C641.015,290.774 640.255,298.104 640.255,298.104 C641.515,299.054 643.165,299.614 644.855,299.743 L644.855,299.733 z" fill="url(#Gradient_10)"/>
    <path d="M638.985,268.833 C644.485,269.343 643.665,277.294 643.075,280.614 C643.075,280.614 643.075,280.624 643.075,280.634 C642.975,281.104 642.875,281.573 642.786,282.034 C641.405,278.513 636.235,275.864 636.235,275.864 C627.415,281.854 618.675,283.093 610.605,281.663 C588.026,277.683 570.545,252.913 570.545,252.913 C570.545,252.913 582.765,248.944 609.185,245.313 C635.595,241.683 638.985,268.833 638.985,268.833" fill="#47AD47"/>
    <path d="M631.571,268.778 C630.319,267.106 628.759,265.774 627.104,264.632 C625.457,263.478 623.672,262.552 621.846,261.751 C620.001,260.989 618.121,260.311 616.178,259.821 C614.246,259.302 612.28,258.884 610.285,258.601 C606.303,257.989 602.248,257.698 598.158,257.597 C594.064,257.493 589.944,257.579 585.754,257.571 C589.76,256.343 593.899,255.595 598.09,255.255 C602.28,254.919 606.537,254.974 610.748,255.638 C612.845,255.995 614.938,256.45 616.98,257.104 C619.009,257.79 621.019,258.581 622.885,259.665 C624.764,260.712 626.515,262.003 628.045,263.509 C629.534,265.04 630.894,266.77 631.571,268.778" fill="#357741"/>
    <path d="M643.638,294.747 C643.638,294.747 640.631,289.901 636.93,291.913 C633.097,293.997 639.057,299.075 642.64,299.825 C646.223,300.575 652.384,300.253 651.555,297.038 C650.945,294.671 649.64,293.759 643.638,294.747" fill="#68AA44"/>
    <path d="M653.116,277.694 C648.345,287.413 644.855,299.733 644.855,299.733 L644.855,299.743 C643.165,299.614 641.515,299.054 640.255,298.104 C640.255,298.104 641.015,290.774 642.786,282.044 C642.786,282.044 642.786,282.044 642.786,282.034 C642.805,281.944 642.935,281.423 643.075,280.634 C643.075,280.624 643.075,280.614 643.075,280.614 C644.565,273.583 646.685,265.894 649.555,260.493 C649.555,260.493 649.795,248.614 663.616,257.284 C672.776,263.034 662.985,264.374 658.956,268.563 C656.905,270.694 654.915,274.013 653.116,277.694" fill="#795E36"/>
    <path d="M667.357,401.167 C667.357,402.456 666.461,403.501 665.357,403.501 C664.252,403.501 663.357,402.456 663.357,401.167 C663.357,399.88 664.252,398.835 665.357,398.835 C666.461,398.835 667.357,399.88 667.357,401.167" fill="#D0E08B"/>
    <path d="M636.055,390.247 C636.055,391.536 635.16,392.581 634.055,392.581 C632.951,392.581 632.055,391.536 632.055,390.247 C632.055,388.958 632.951,387.913 634.055,387.913 C635.16,387.913 636.055,388.958 636.055,390.247" fill="#D0E08B"/>
    <path d="M650.055,410.413 C650.055,411.702 649.16,412.747 648.055,412.747 C646.951,412.747 646.055,411.702 646.055,410.413 C646.055,409.126 646.951,408.081 648.055,408.081 C649.16,408.081 650.055,409.126 650.055,410.413" fill="#D0E08B"/>
    <path d="M677.555,379.163 C677.555,380.452 676.66,381.497 675.555,381.497 C674.451,381.497 673.555,380.452 673.555,379.163 C673.555,377.874 674.451,376.829 675.555,376.829 C676.66,376.829 677.555,377.874 677.555,379.163" fill="#D0E08B"/>
    <path d="M652.555,319.329 C652.555,320.618 651.66,321.663 650.555,321.663 C649.451,321.663 648.555,320.618 648.555,319.329 C648.555,318.042 649.451,316.997 650.555,316.997 C651.66,316.997 652.555,318.042 652.555,319.329" fill="#7CBC45"/>
    <path d="M670.222,341.997 C670.222,343.286 669.327,344.331 668.222,344.331 C667.118,344.331 666.222,343.286 666.222,341.997 C666.222,340.71 667.118,339.665 668.222,339.665 C669.327,339.665 670.222,340.71 670.222,341.997" fill="#7CBC45"/>
    <path d="M675.888,355.997 C675.888,357.286 674.993,358.331 673.888,358.331 C672.784,358.331 671.888,357.286 671.888,355.997 C671.888,354.708 672.784,353.663 673.888,353.663 C674.993,353.663 675.888,354.708 675.888,355.997" fill="#7CBC45"/>
    <path d="M640.555,371.331 C640.555,372.62 639.66,373.665 638.555,373.665 C637.451,373.665 636.555,372.62 636.555,371.331 C636.555,370.042 637.451,368.997 638.555,368.997 C639.66,368.997 640.555,370.042 640.555,371.331" fill="#7CBC45"/>
    <path d="M654.555,355.331 C654.555,356.62 653.66,357.665 652.555,357.665 C651.451,357.665 650.555,356.62 650.555,355.331 C650.555,354.042 651.451,352.997 652.555,352.997 C653.66,352.997 654.555,354.042 654.555,355.331" fill="#7CBC45"/>
    <path d="M643.222,339.665 C643.222,340.954 642.327,341.999 641.222,341.999 C640.118,341.999 639.222,340.954 639.222,339.665 C639.222,338.376 640.118,337.331 641.222,337.331 C642.327,337.331 643.222,338.376 643.222,339.665" fill="#7CBC45"/>
    <path d="M669.575,307.677 C669.575,308.966 668.679,310.011 667.575,310.011 C666.47,310.011 665.575,308.966 665.575,307.677 C665.575,306.39 666.47,305.345 667.575,305.345 C668.679,305.345 669.575,306.39 669.575,307.677" fill="#7CBC45"/>
    <path d="M622.555,402.331 C622.555,403.62 621.66,404.665 620.555,404.665 C619.451,404.665 618.555,403.62 618.555,402.331 C618.555,401.042 619.451,399.997 620.555,399.997 C621.66,399.997 622.555,401.042 622.555,402.331" fill="#D0E08B"/>
    <path d="M599.555,404.663 C599.555,405.952 598.66,406.997 597.555,406.997 C596.451,406.997 595.555,405.952 595.555,404.663 C595.555,403.376 596.451,402.331 597.555,402.331 C598.66,402.331 599.555,403.376 599.555,404.663" fill="#D0E08B"/>
    <path d="M641.388,427.163 C641.388,428.452 640.493,429.497 639.388,429.497 C638.284,429.497 637.388,428.452 637.388,427.163 C637.388,425.876 638.284,424.831 639.388,424.831 C640.493,424.831 641.388,425.876 641.388,427.163" fill="#D0E08B"/>
    <path d="M666.306,426.938 C666.306,428.228 665.411,429.272 664.306,429.272 C663.202,429.272 662.306,428.228 662.306,426.938 C662.306,425.649 663.202,424.604 664.306,424.604 C665.411,424.604 666.306,425.649 666.306,426.938" fill="#D0E08B"/>
    <path d="M623.501,433.206 C623.501,434.495 622.606,435.54 621.501,435.54 C620.397,435.54 619.501,434.495 619.501,433.206 C619.501,431.919 620.397,430.874 621.501,430.874 C622.606,430.874 623.501,431.919 623.501,433.206" fill="#D0E08B"/>
    <path d="M657.805,389.413 C657.805,390.702 656.91,391.747 655.805,391.747 C654.701,391.747 653.805,390.702 653.805,389.413 C653.805,388.126 654.701,387.081 655.805,387.081 C656.91,387.081 657.805,388.126 657.805,389.413" fill="#D0E08B"/>
    <path d="M592.889,424.663 C592.889,425.952 591.994,426.997 590.889,426.997 C589.785,426.997 588.889,425.952 588.889,424.663 C588.889,423.374 589.785,422.329 590.889,422.329 C591.994,422.329 592.889,423.374 592.889,424.663" fill="#D0E08B"/>
    <path d="M569.889,403.329 C569.889,404.618 568.994,405.663 567.889,405.663 C566.785,405.663 565.889,404.618 565.889,403.329 C565.889,402.042 566.785,400.997 567.889,400.997 C568.994,400.997 569.889,402.042 569.889,403.329" fill="#D0E08B"/>
    <path d="M577.53,332.042 C588.305,324.581 589.424,322.938 596.592,315.956 C602.187,310.507 606.934,312.708 604.361,329.333 C601.936,344.993 600.35,364.655 580.721,357.81 C562.243,351.366 569.915,337.315 577.53,332.042" fill="#B3D37C"/>
    <path d="M594.917,122.51 C591.106,127.19 585.295,130.18 578.786,130.18 C575.706,130.18 572.776,129.51 570.157,128.31 C570.157,128.48 570.157,128.65 570.157,128.82 C570.157,132.25 569.096,135.43 567.276,138.05 L567.247,138.14 C572.637,139.66 577.125,143.29 579.766,148.09 C579.637,147.17 579.577,146.24 579.577,145.29 C579.577,135.54 586.295,127.35 595.366,125.12 C595.217,124.3 595.106,123.47 595.057,122.62 L594.917,122.51 z M633.147,132.76 C630.356,136.97 626.086,140.09 621.077,141.4 L620.817,141.45 C621.057,142.69 621.176,143.98 621.176,145.29 C621.176,150.59 619.186,155.43 615.907,159.11 C617.596,159.72 619.436,160.05 621.346,160.05 C630.286,160.05 637.545,152.8 637.545,143.85 C637.545,139.57 635.887,135.68 633.167,132.78 L633.147,132.76 z M598.897,79.98 C588.086,88.55 578.536,84.63 567.967,81.28 C569.536,83.89 570.536,86.86 570.827,90.06 L570.856,90.14 C573.295,89.14 575.977,88.58 578.786,88.58 C589.756,88.58 598.747,97.07 599.516,107.84 L599.956,107.81 C601.696,105.77 603.807,104.07 606.206,102.82 C599.875,96.12 596.086,88.6 598.897,79.98 z M565.096,25.88 C556.426,25.88 549.336,32.7 548.917,41.27 L548.956,41.36 C551.606,40.13 554.567,39.44 557.686,39.44 C562.497,39.44 566.926,41.07 570.436,43.81 L570.497,43.73 C572.196,39.58 575.196,36.1 578.997,33.79 L578.776,33.41 C575.907,28.89 570.846,25.88 565.096,25.88 z M640.067,28.62 L639.467,28.22 C637.696,30.89 635.936,33.25 634.176,35.33 L634.137,35.74 C637.387,36.11 641.116,37.43 645.446,40.04 C648.667,41.97 651.747,44.53 654.897,46.93 L655.077,46.69 C654.276,38.04 648.186,30.92 640.067,28.62 z M621.756,31.63 C620.897,30.32 619.856,29.13 618.667,28.12 L618.596,28.09 C617.917,29.7 616.917,31.47 615.497,33.38 C614.186,35.13 612.795,36.6 611.317,37.78 C612.116,38.33 612.987,38.75 613.907,39 C618.676,40.25 624.456,36.55 630.596,28.57 L630.176,28.25 C627.157,28.87 624.366,30.15 621.987,31.93 L621.756,31.63 z M608.167,24.26 C607.125,24.26 606.125,24.36 605.137,24.54 C605.057,24.96 605.016,25.4 604.987,25.86 C604.907,27.53 605.567,30.03 606.817,32.42 C607.866,31.61 608.887,30.54 609.875,29.2 C611.116,27.53 611.917,26.06 612.387,24.82 L612.346,24.8 C611.016,24.44 609.616,24.26 608.167,24.26 z M569.776,178.905 C569.776,184.088 565.575,188.29 560.393,188.29 C555.209,188.29 551.008,184.088 551.008,178.905 C551.008,173.723 555.209,169.521 560.393,169.521 C565.575,169.521 569.776,173.723 569.776,178.905" fill="url(#Gradient_11)"/>
    <path d="M599.497,33.22 C598.407,30.48 597.887,27.75 597.997,25.52 C598.276,19.87 600.887,16.26 603.887,14.31 C604.897,13.66 605.936,13.2 606.956,12.91 C611.307,11.67 615.836,13.14 618.217,16.59 C619.327,18.2 621.157,22.09 618.596,28.09 C617.917,29.7 616.917,31.47 615.497,33.38 C614.186,35.13 612.795,36.6 611.317,37.78 C612.116,38.33 612.987,38.75 613.907,39 C618.676,40.25 624.456,36.55 630.596,28.57 C634.067,24.06 637.657,18.18 641.227,11.05 C642.086,9.33 644.186,8.63 645.917,9.5 C647.647,10.36 648.346,12.46 647.477,14.19 C644.795,19.53 642.125,24.21 639.467,28.22 C637.696,30.89 635.936,33.25 634.176,35.33 L634.137,35.74 C637.387,36.11 641.116,37.43 645.446,40.04 C648.667,41.97 651.747,44.53 654.897,46.93 C660.467,51.16 666.276,54.91 673.516,53.87 C673.516,53.87 667.567,63.73 661.237,66.85 C657.616,68.62 651.217,68.29 644.807,67.17 L644.756,67.45 C658.667,74.04 646.667,103.42 637.026,126.85 L636.696,127.2 C636.456,126.97 636.196,126.74 635.936,126.51 C628.167,119.61 614.827,111.97 606.206,102.82 C599.875,96.12 596.086,88.6 598.897,79.98 C588.086,88.55 578.536,84.63 567.967,81.28 C566.647,80.86 565.307,80.45 563.946,80.08 C563.077,79.84 562.196,79.61 561.307,79.41 C569.006,76.03 574.116,69.07 578.616,61.89 C584.137,53.1 588.727,43.97 596.057,40.74 L595.917,40.42 C590.045,38.45 585.397,33.94 583.536,31.93 L582.917,31.95 C582.756,32.01 582.596,32.06 582.436,32.13 L582.436,32.12 C582.436,32.12 581.977,24.79 579.997,20.54 C579.997,20.54 556.036,22.08 540.776,13.81 C540.776,13.81 536.077,3.55 546.266,7.04 C555.016,10.04 576.397,17.31 606.776,2.19 C615.186,-2 617.096,5.59 612.227,8.59 C612.227,8.59 608.446,10.61 603.276,13.01 L603.276,13.02 C598.586,15.19 592.737,17.68 587.506,19.24 C587.506,19.24 588.897,23.73 589.747,28.34 L589.795,28.33 C590.717,29.22 591.866,30.21 593.167,31.15 C595.176,32.57 597.536,33.83 599.926,34.23 C599.776,33.89 599.637,33.56 599.497,33.22 z M605.137,24.54 C605.057,24.96 605.016,25.4 604.987,25.86 C604.907,27.53 605.567,30.03 606.817,32.42 C607.866,31.61 608.887,30.54 609.875,29.2 C611.116,27.53 611.917,26.06 612.387,24.82 C613.137,22.8 613.006,21.37 612.456,20.57 C611.967,19.87 611.057,19.47 610.036,19.47 C609.657,19.47 609.266,19.53 608.875,19.64 C606.887,20.2 605.567,21.96 605.137,24.54" fill="#84BF4C"/>
    <path d="M570.856,90.14 L570.827,90.06 C570.536,86.86 569.536,83.89 567.967,81.28 C566.647,80.86 565.307,80.45 563.946,80.08 C561.967,80.7 559.875,81.04 557.686,81.04 C551.016,81.04 545.077,77.9 541.286,73.02 L540.987,73.26 C535.247,76.07 530.997,81.44 529.717,87.89 C529.456,89.2 529.317,90.56 529.317,91.95 C529.317,103.44 538.625,112.75 550.106,112.75 C550.786,112.75 551.456,112.72 552.116,112.65 L552.125,112.72 C552.727,112.65 553.336,112.62 553.956,112.62 C555.397,112.62 556.795,112.81 558.125,113.16 L558.327,113.12 C558.096,111.9 557.987,110.66 557.987,109.38 C557.987,100.7 563.307,93.26 570.856,90.14 z M560.526,184.01 C559.887,182.15 558.967,180.41 557.827,178.86 L557.866,178.61 C552.836,177.71 548.436,175.01 545.366,171.19 L545.317,171.23 C544.336,171.08 543.336,171 542.307,171 C538.237,171 534.446,172.27 531.336,174.43 C526.327,177.91 523.057,183.7 523.057,190.25 C523.057,200.88 531.676,209.5 542.307,209.5 C550.946,209.5 558.256,203.81 560.686,195.98 C561.256,194.17 561.557,192.25 561.557,190.25 C561.557,188.07 561.196,185.97 560.526,184.01 z M583.737,157.77 C587.536,162.83 593.577,166.09 600.375,166.09 C603.696,166.09 606.836,165.31 609.625,163.92 L609.786,164.24 C611.747,167.29 612.897,170.92 612.897,174.82 C612.897,185.62 604.137,194.38 593.327,194.38 C592.667,194.38 592.016,194.35 591.366,194.28 C581.717,193.32 574.125,185.35 573.776,175.52 L573.516,175.15 C578.866,171.39 582.356,165.17 582.356,158.14 C582.356,157.19 582.295,156.25 582.167,155.33 C582.625,156.19 583.157,157 583.737,157.77" fill="url(#Gradient_12)"/>
    <path d="M536.887,60.24 C536.887,55.75 538.307,51.6 540.717,48.21 C538.167,47.08 535.346,46.46 532.387,46.46 C520.897,46.46 511.586,55.78 511.586,67.26 C511.586,77.85 519.497,86.59 529.717,87.89 C530.997,81.44 535.247,76.07 540.987,73.26 L541.286,73.02 C538.526,69.5 536.887,65.06 536.887,60.24 z M558.327,113.12 L558.125,113.16 C556.795,112.81 555.397,112.62 553.956,112.62 C553.336,112.62 552.727,112.65 552.125,112.72 C544.045,113.63 537.756,120.5 537.756,128.82 C537.756,135.22 541.467,140.75 546.846,143.38 L546.866,143.41 C550.637,139.66 555.827,137.34 561.557,137.34 C563.526,137.34 565.436,137.62 567.247,138.14 L567.276,138.05 C569.096,135.43 570.157,132.25 570.157,128.82 C570.157,128.65 570.157,128.48 570.157,128.31 C564.067,125.53 559.545,119.9 558.327,113.12 z M560.526,184.01 C561.196,185.97 561.557,188.07 561.557,190.25 C561.557,192.25 561.256,194.17 560.686,195.98 L561.106,196.08 C563.647,201.73 569.317,205.66 575.897,205.66 C583.086,205.66 589.176,200.98 591.295,194.51 L591.366,194.28 C581.717,193.32 574.125,185.35 573.776,175.52 L573.516,175.15 C570.625,177.19 567.196,178.51 563.487,178.85 L563.497,179.04 C562.276,180.48 561.307,182.15 560.657,183.96 L560.526,184.01 z M540.756,158.14 C540.756,153.28 542.426,148.81 545.227,145.27 L545.067,145.14 C543.516,144.64 541.856,144.37 540.137,144.37 C531.186,144.37 523.936,151.63 523.936,160.57 C523.936,166.14 526.747,171.05 531.016,173.97 L531.336,174.43 C534.446,172.27 538.237,171 542.307,171 C543.336,171 544.336,171.08 545.317,171.23 L545.366,171.19 C542.487,167.62 540.756,163.08 540.756,158.14 z M606.206,102.82 C603.807,104.07 601.696,105.77 599.956,107.81 L599.516,107.84 C599.567,108.35 599.586,108.86 599.586,109.38 C599.586,114.36 597.836,118.93 594.917,122.51 L595.057,122.62 C595.106,123.47 595.217,124.3 595.366,125.12 C596.977,124.71 598.647,124.5 600.375,124.5 C610.545,124.5 619.016,131.8 620.817,141.45 L621.077,141.4 C626.086,140.09 630.356,136.97 633.147,132.76 C634.407,130.88 635.356,128.77 635.936,126.51 C628.167,119.61 614.827,111.97 606.206,102.82 z M578.487,60.24 C578.487,53.56 575.336,47.61 570.436,43.81 L570.497,43.73 C572.196,39.58 575.196,36.1 578.997,33.79 C580.077,33.14 581.227,32.58 582.436,32.13 C582.596,32.06 582.756,32.01 582.917,31.95 L583.536,31.93 C585.397,33.94 590.045,38.45 595.917,40.42 L596.057,40.74 C588.727,43.97 584.137,53.1 578.616,61.89 L578.426,61.77 C578.467,61.27 578.487,60.76 578.487,60.24" fill="url(#Gradient_13)"/>
    <path d="M620.817,141.45 C619.016,131.8 610.545,124.5 600.375,124.5 C598.647,124.5 596.977,124.71 595.366,125.12 C586.295,127.35 579.577,135.54 579.577,145.29 C579.577,146.24 579.637,147.17 579.766,148.09 C580.116,150.68 580.946,153.13 582.167,155.33 C582.625,156.19 583.157,157 583.737,157.77 C587.536,162.83 593.577,166.09 600.375,166.09 C603.696,166.09 606.836,165.31 609.625,163.92 C612.026,162.73 614.157,161.09 615.907,159.11 C619.186,155.43 621.176,150.59 621.176,145.29 C621.176,143.98 621.057,142.69 620.817,141.45 z M578.616,61.89 L578.426,61.77 C578.467,61.27 578.487,60.76 578.487,60.24 C578.487,53.56 575.336,47.61 570.436,43.81 C566.926,41.07 562.497,39.44 557.686,39.44 C554.567,39.44 551.606,40.13 548.956,41.36 C545.647,42.89 542.807,45.27 540.717,48.21 C538.307,51.6 536.887,55.75 536.887,60.24 C536.887,65.06 538.526,69.5 541.286,73.02 C545.077,77.9 551.016,81.04 557.686,81.04 C559.875,81.04 561.967,80.7 563.946,80.08 C563.077,79.84 562.196,79.61 561.307,79.41 C569.006,76.03 574.116,69.07 578.616,61.89 z M578.786,88.58 C575.977,88.58 573.295,89.14 570.856,90.14 C563.307,93.26 557.987,100.7 557.987,109.38 C557.987,110.66 558.096,111.9 558.327,113.12 C559.545,119.9 564.067,125.53 570.157,128.31 C572.776,129.51 575.706,130.18 578.786,130.18 C585.295,130.18 591.106,127.19 594.917,122.51 C597.836,118.93 599.586,114.36 599.586,109.38 C599.586,108.86 599.567,108.35 599.516,107.84 C598.747,97.07 589.756,88.58 578.786,88.58 z M582.356,158.14 C582.356,165.17 578.866,171.39 573.516,175.15 C570.625,177.19 567.196,178.51 563.487,178.85 C562.846,178.91 562.206,178.94 561.557,178.94 C560.295,178.94 559.067,178.83 557.866,178.61 C552.836,177.71 548.436,175.01 545.366,171.19 C542.487,167.62 540.756,163.08 540.756,158.14 C540.756,153.28 542.426,148.81 545.227,145.27 C545.727,144.62 546.276,144 546.866,143.41 C550.637,139.66 555.827,137.34 561.557,137.34 C563.526,137.34 565.436,137.62 567.247,138.14 C572.637,139.66 577.125,143.29 579.766,148.09 C580.116,150.68 580.946,153.13 582.167,155.33 C582.295,156.25 582.356,157.19 582.356,158.14" fill="url(#Gradient_14)"/>
    <path d="M647.225,54.681 C642.971,53.768 638.77,52.652 634.586,51.456 C633.083,51.033 631.155,50.5 629.657,50.04 C630.87,49.739 632.295,49.002 633.385,48.41 C634.497,47.809 635.6,47.184 636.694,46.537 C637.776,45.864 638.875,45.232 639.946,44.526 L639.829,44.252 C638.577,44.521 637.356,44.864 636.118,45.167 C634.889,45.495 633.672,45.846 632.463,46.22 C631.254,46.591 629.76,47.041 628.329,47.607 C625.198,48.846 623.639,48.083 622.084,47.582 L615.829,45.527 L612.672,44.526 L611.079,44.05 L610.422,43.877 C610.145,43.761 609.895,43.727 609.713,43.721 C609.661,43.715 609.606,43.717 609.551,43.721 C609.489,43.724 609.444,43.729 609.444,43.729 C607.803,47.548 606.165,51.111 604.172,54.536 C603.874,55.03 602.795,55.249 601.616,55.401 C600.317,55.547 598.797,55.548 597.62,55.659 C596.442,55.768 595.264,55.903 594.086,56.063 C592.911,56.249 591.733,56.392 590.553,56.616 L590.549,56.913 C591.723,57.163 592.897,57.334 594.071,57.548 C595.243,57.735 596.417,57.897 597.592,58.035 C598.766,58.172 599.698,58.239 601.116,58.373 C602.143,58.331 601.241,59.085 600.942,59.486 C599.793,61.077 598.583,62.616 597.247,64.036 C594.614,66.91 591.651,69.464 588.325,71.537 C584.999,73.616 581.348,75.21 577.465,76.494 C581.559,76.433 585.678,75.397 589.442,73.567 C593.211,71.746 596.624,69.143 599.438,66.037 C600.831,64.47 602.12,62.817 603.256,61.069 C604.364,59.304 605.354,57.476 606.225,55.595 C607.893,51.99 610.069,47.89 610.223,45.527 C611.868,48.97 615.418,55.491 617.321,60.015 C618.35,62.522 619.329,65.049 620.264,67.591 C619.249,68.658 618.29,69.726 617.334,70.789 C616.012,72.27 614.713,73.735 613.393,75.164 C612.071,76.593 610.735,77.99 609.331,79.337 C607.924,80.693 606.456,81.976 604.829,83.314 C606.94,83.12 608.946,82.282 610.747,81.194 C612.549,80.092 614.163,78.713 615.577,77.177 C616.991,75.64 618.295,73.988 619.231,72.138 C621.463,67.721 622.614,74.242 623.458,76.951 C624.17,79.134 624.817,81.34 625.444,83.552 C624.725,84.485 624.018,85.397 623.315,86.28 C622.258,87.607 621.188,88.879 620.071,90.102 C618.954,91.325 617.795,92.502 616.561,93.654 C615.333,94.816 614.028,95.926 612.663,97.19 C614.522,97.061 616.295,96.438 617.922,95.552 C619.547,94.657 621.018,93.476 622.266,92.102 C623.516,90.728 624.674,89.214 625.307,87.482 C626.811,83.371 627.563,91.405 628.311,94.325 C629.741,100.181 630.999,106.089 632.297,112.04 C632.229,105.948 631.6,99.87 630.581,93.855 C630.116,90.968 627.264,83.989 629.963,86.151 C631.145,87.097 632.581,87.697 634.043,88.158 C635.506,88.619 637.067,88.852 638.629,88.76 C640.18,88.66 641.76,88.238 643.022,87.289 C641.477,87.027 640.137,86.765 638.817,86.432 C637.5,86.106 636.223,85.726 634.932,85.325 L628.249,82.981 C627.622,80.557 627.026,78.447 626.286,76.053 C625.489,73.612 621.944,66.912 625.766,69.866 C627.083,70.882 628.915,70.97 630.571,71.198 C632.225,71.427 633.922,71.429 635.586,71.163 C637.245,70.887 638.883,70.357 640.299,69.387 C638.604,69.149 637.055,69.012 635.518,68.828 C633.985,68.655 632.483,68.459 630.973,68.256 L622.891,66.699 C621.743,63.926 620.792,61.726 619.42,59.054 C618.055,56.316 616.702,53.526 615.075,50.659 C614.352,49.383 612.954,47.076 611.911,45.489 C612.747,45.957 613.569,46.379 613.993,46.606 C615.961,47.618 619.225,48.854 621.258,49.738 C623.278,50.658 625.352,51.442 627.428,52.232 C629.516,52.989 631.635,53.664 633.764,54.308 C638.038,55.548 642.417,56.463 646.852,56.969 C651.28,57.47 655.788,57.555 660.182,56.847 C655.774,56.316 651.481,55.593 647.225,54.681" fill="#61B145"/>
    <path d="M557.565,143.188 C564.022,140.577 568.006,149.371 561.549,152.256 C555.092,155.141 547.458,147.274 557.565,143.188" fill="#DEC1D3"/>
    <path d="M568.579,97.843 C572.77,96.28 580.012,104.462 570.985,111.984 C561.959,119.506 559.702,101.152 568.579,97.843" fill="#DABFD2"/>
    <path d="M551.016,49.623 C558.35,50.29 559.516,64.457 552.516,64.623 C542.336,64.866 543.756,48.964 551.016,49.623" fill="#CFA4C0"/>
    <path d="M599.239,131.703 C598.59,128.199 588.579,131.832 590.411,137.025 C592.747,143.645 599.926,135.42 599.239,131.703" fill="#DEC1D3"/>
    <path d="M588.12,611.011 C584.309,615.69 578.499,618.681 571.989,618.681 C568.909,618.681 565.979,618.011 563.36,616.81 C563.36,616.979 563.36,617.149 563.36,617.319 C563.36,620.75 562.299,623.931 560.479,626.55 L560.45,626.64 C565.839,628.16 570.329,631.79 572.969,636.59 C572.839,635.67 572.78,634.74 572.78,633.79 C572.78,624.04 579.499,615.851 588.569,613.62 C588.419,612.8 588.309,611.97 588.259,611.12 L588.12,611.011 z M626.349,621.261 C623.559,625.47 619.29,628.59 614.28,629.899 L614.019,629.95 C614.259,631.19 614.379,632.479 614.379,633.79 C614.379,639.09 612.389,643.931 609.11,647.61 C610.799,648.22 612.639,648.55 614.549,648.55 C623.489,648.55 630.749,641.3 630.749,632.351 C630.749,628.069 629.089,624.181 626.37,621.28 L626.349,621.261 z M592.099,568.479 C581.29,577.05 571.739,573.13 561.169,569.78 C562.739,572.39 563.739,575.36 564.03,578.56 L564.059,578.64 C566.499,577.64 569.179,577.08 571.989,577.08 C582.959,577.08 591.95,585.569 592.719,596.34 L593.159,596.31 C594.899,594.27 597.009,592.569 599.409,591.319 C593.079,584.62 589.29,577.101 592.099,568.479 z M558.299,514.38 C549.629,514.38 542.54,521.2 542.12,529.77 L542.159,529.86 C544.809,528.63 547.769,527.94 550.889,527.94 C555.7,527.94 560.129,529.569 563.639,532.31 L563.7,532.229 C565.399,528.08 568.399,524.601 572.2,522.29 L571.979,521.91 C569.11,517.39 564.049,514.38 558.299,514.38 z M633.269,517.12 L632.669,516.72 C630.899,519.39 629.139,521.75 627.379,523.83 L627.339,524.24 C630.589,524.61 634.319,525.931 638.649,528.54 C641.87,530.47 644.95,533.03 648.099,535.431 L648.279,535.19 C647.479,526.54 641.389,519.42 633.269,517.12 z M614.959,520.13 C614.099,518.819 613.059,517.63 611.87,516.62 L611.799,516.59 C611.12,518.2 610.12,519.97 608.7,521.88 C607.389,523.63 605.999,525.101 604.519,526.28 C605.319,526.83 606.19,527.25 607.11,527.5 C611.879,528.75 617.659,525.05 623.799,517.069 L623.379,516.75 C620.36,517.37 617.569,518.649 615.19,520.431 L614.959,520.13 z M601.37,512.761 C600.329,512.761 599.329,512.86 598.339,513.04 C598.259,513.46 598.219,513.899 598.19,514.36 C598.11,516.03 598.769,518.53 600.019,520.92 C601.069,520.11 602.089,519.04 603.079,517.7 C604.319,516.03 605.12,514.56 605.589,513.319 L605.549,513.3 C604.219,512.94 602.819,512.761 601.37,512.761 z M562.979,667.405 C562.979,672.589 558.778,676.79 553.595,676.79 C548.412,676.79 544.21,672.589 544.21,667.405 C544.21,662.223 548.412,658.02 553.595,658.02 C558.778,658.02 562.979,662.223 562.979,667.405" fill="url(#Gradient_15)"/>
    <path d="M592.7,521.72 C591.61,518.979 591.089,516.25 591.2,514.02 C591.479,508.37 594.089,504.761 597.089,502.81 C598.099,502.16 599.139,501.7 600.159,501.41 C604.509,500.17 609.04,501.64 611.419,505.09 C612.53,506.7 614.36,510.59 611.799,516.59 C611.12,518.2 610.12,519.97 608.7,521.88 C607.389,523.63 605.999,525.101 604.519,526.28 C605.319,526.83 606.19,527.25 607.11,527.5 C611.879,528.75 617.659,525.05 623.799,517.069 C627.269,512.56 630.86,506.681 634.429,499.55 C635.29,497.83 637.389,497.13 639.12,498 C640.849,498.86 641.549,500.96 640.679,502.69 C637.999,508.03 635.329,512.71 632.669,516.72 C630.899,519.39 629.139,521.75 627.379,523.83 L627.339,524.24 C630.589,524.61 634.319,525.931 638.649,528.54 C641.87,530.47 644.95,533.03 648.099,535.431 C653.669,539.66 659.479,543.41 666.719,542.37 C666.719,542.37 660.769,552.229 654.439,555.351 C650.819,557.12 644.419,556.79 638.009,555.67 L637.959,555.95 C651.87,562.54 639.87,591.92 630.229,615.351 L629.899,615.7 C629.659,615.47 629.399,615.24 629.139,615.011 C621.37,608.11 608.03,600.47 599.409,591.319 C593.079,584.62 589.29,577.101 592.099,568.479 C581.29,577.05 571.739,573.13 561.169,569.78 C559.849,569.36 558.509,568.95 557.149,568.58 C556.28,568.34 555.399,568.11 554.509,567.91 C562.209,564.53 567.319,557.569 571.819,550.39 C577.339,541.601 581.929,532.47 589.259,529.24 L589.12,528.92 C583.249,526.95 578.599,522.44 576.739,520.431 L576.12,520.45 C575.959,520.511 575.799,520.56 575.639,520.63 L575.639,520.62 C575.639,520.62 575.179,513.29 573.2,509.04 C573.2,509.04 549.239,510.58 533.979,502.31 C533.979,502.31 529.28,492.05 539.469,495.54 C548.219,498.54 569.599,505.81 599.979,490.69 C608.389,486.5 610.299,494.09 605.429,497.09 C605.429,497.09 601.649,499.11 596.479,501.511 L596.479,501.52 C591.79,503.69 585.94,506.181 580.709,507.74 C580.709,507.74 582.099,512.229 582.95,516.84 L582.999,516.83 C583.919,517.72 585.069,518.71 586.37,519.649 C588.379,521.069 590.739,522.33 593.129,522.729 C592.979,522.39 592.839,522.06 592.7,521.72 z M598.339,513.04 C598.259,513.46 598.219,513.899 598.19,514.36 C598.11,516.03 598.769,518.53 600.019,520.92 C601.069,520.11 602.089,519.04 603.079,517.7 C604.319,516.03 605.12,514.56 605.589,513.319 C606.339,511.3 606.209,509.87 605.659,509.069 C605.169,508.37 604.259,507.97 603.239,507.97 C602.86,507.97 602.469,508.03 602.079,508.14 C600.089,508.7 598.769,510.46 598.339,513.04" fill="#5AB146"/>
    <path d="M564.059,578.64 L564.03,578.56 C563.739,575.36 562.739,572.39 561.169,569.78 C559.849,569.36 558.509,568.95 557.149,568.58 C555.169,569.2 553.079,569.54 550.889,569.54 C544.219,569.54 538.28,566.399 534.489,561.52 L534.19,561.761 C528.45,564.569 524.2,569.94 522.919,576.39 C522.659,577.7 522.519,579.06 522.519,580.45 C522.519,591.94 531.829,601.25 543.309,601.25 C543.989,601.25 544.659,601.22 545.319,601.149 L545.329,601.22 C545.929,601.149 546.54,601.12 547.159,601.12 C548.599,601.12 549.999,601.31 551.329,601.66 L551.53,601.62 C551.299,600.399 551.19,599.16 551.19,597.88 C551.19,589.2 556.509,581.761 564.059,578.64 z M553.729,672.511 C553.089,670.649 552.169,668.91 551.03,667.36 L551.069,667.11 C546.04,666.21 541.639,663.511 538.569,659.69 L538.519,659.729 C537.54,659.58 536.54,659.5 535.509,659.5 C531.44,659.5 527.649,660.77 524.54,662.931 C519.53,666.41 516.259,672.2 516.259,678.75 C516.259,689.38 524.879,698 535.509,698 C544.149,698 551.459,692.31 553.889,684.479 C554.459,682.67 554.759,680.75 554.759,678.75 C554.759,676.569 554.399,674.47 553.729,672.511 z M576.94,646.27 C580.739,651.33 586.78,654.59 593.579,654.59 C596.899,654.59 600.04,653.81 602.829,652.42 L602.989,652.74 C604.95,655.79 606.099,659.42 606.099,663.319 C606.099,674.12 597.339,682.88 586.53,682.88 C585.87,682.88 585.219,682.851 584.569,682.78 C574.919,681.819 567.329,673.851 566.979,664.02 L566.719,663.649 C572.069,659.89 575.559,653.67 575.559,646.64 C575.559,645.69 575.499,644.75 575.37,643.83 C575.829,644.69 576.36,645.5 576.94,646.27" fill="url(#Gradient_16)"/>
    <path d="M530.089,548.74 C530.089,544.25 531.509,540.101 533.919,536.71 C531.37,535.58 528.549,534.96 525.589,534.96 C514.099,534.96 504.79,544.28 504.79,555.761 C504.79,566.351 512.7,575.09 522.919,576.39 C524.2,569.94 528.45,564.569 534.19,561.761 L534.489,561.52 C531.729,558 530.089,553.56 530.089,548.74 z M551.53,601.62 L551.329,601.66 C549.999,601.31 548.599,601.12 547.159,601.12 C546.54,601.12 545.929,601.149 545.329,601.22 C537.249,602.13 530.959,609 530.959,617.319 C530.959,623.72 534.669,629.25 540.049,631.88 L540.069,631.91 C543.839,628.16 549.03,625.84 554.759,625.84 C556.729,625.84 558.639,626.12 560.45,626.64 L560.479,626.55 C562.299,623.931 563.36,620.75 563.36,617.319 C563.36,617.149 563.36,616.979 563.36,616.81 C557.269,614.03 552.749,608.399 551.53,601.62 z M553.729,672.511 C554.399,674.47 554.759,676.569 554.759,678.75 C554.759,680.75 554.459,682.67 553.889,684.479 L554.309,684.58 C556.849,690.229 562.519,694.16 569.099,694.16 C576.29,694.16 582.379,689.479 584.499,683.011 L584.569,682.78 C574.919,681.819 567.329,673.851 566.979,664.02 L566.719,663.649 C563.829,665.69 560.399,667.011 556.69,667.351 L556.7,667.54 C555.479,668.979 554.509,670.649 553.86,672.46 L553.729,672.511 z M533.959,646.64 C533.959,641.78 535.629,637.31 538.429,633.77 L538.269,633.64 C536.719,633.14 535.059,632.87 533.339,632.87 C524.389,632.87 517.139,640.13 517.139,649.069 C517.139,654.64 519.95,659.55 524.219,662.47 L524.54,662.931 C527.649,660.77 531.44,659.5 535.509,659.5 C536.54,659.5 537.54,659.58 538.519,659.729 L538.569,659.69 C535.69,656.12 533.959,651.58 533.959,646.64 z M599.409,591.319 C597.009,592.569 594.899,594.27 593.159,596.31 L592.719,596.34 C592.769,596.851 592.79,597.36 592.79,597.88 C592.79,602.86 591.04,607.431 588.12,611.011 L588.259,611.12 C588.309,611.97 588.419,612.8 588.569,613.62 C590.179,613.21 591.849,613 593.579,613 C603.749,613 612.219,620.3 614.019,629.95 L614.28,629.899 C619.29,628.59 623.559,625.47 626.349,621.261 C627.61,619.38 628.559,617.27 629.139,615.011 C621.37,608.11 608.03,600.47 599.409,591.319 z M571.69,548.74 C571.69,542.06 568.54,536.11 563.639,532.31 L563.7,532.229 C565.399,528.08 568.399,524.601 572.2,522.29 C573.28,521.64 574.429,521.08 575.639,520.63 C575.799,520.56 575.959,520.511 576.12,520.45 L576.739,520.431 C578.599,522.44 583.249,526.95 589.12,528.92 L589.259,529.24 C581.929,532.47 577.339,541.601 571.819,550.39 L571.629,550.27 C571.669,549.77 571.69,549.261 571.69,548.74" fill="url(#Gradient_17)"/>
    <path d="M614.019,629.95 C612.219,620.3 603.749,613 593.579,613 C591.849,613 590.179,613.21 588.569,613.62 C579.499,615.851 572.78,624.04 572.78,633.79 C572.78,634.74 572.839,635.67 572.969,636.59 C573.319,639.181 574.149,641.63 575.37,643.83 C575.829,644.69 576.36,645.5 576.94,646.27 C580.739,651.33 586.78,654.59 593.579,654.59 C596.899,654.59 600.04,653.81 602.829,652.42 C605.229,651.229 607.36,649.59 609.11,647.61 C612.389,643.931 614.379,639.09 614.379,633.79 C614.379,632.479 614.259,631.19 614.019,629.95 z M571.819,550.39 L571.629,550.27 C571.669,549.77 571.69,549.261 571.69,548.74 C571.69,542.06 568.54,536.11 563.639,532.31 C560.129,529.569 555.7,527.94 550.889,527.94 C547.769,527.94 544.809,528.63 542.159,529.86 C538.849,531.39 536.009,533.77 533.919,536.71 C531.509,540.101 530.089,544.25 530.089,548.74 C530.089,553.56 531.729,558 534.489,561.52 C538.28,566.399 544.219,569.54 550.889,569.54 C553.079,569.54 555.169,569.2 557.149,568.58 C556.28,568.34 555.399,568.11 554.509,567.91 C562.209,564.53 567.319,557.569 571.819,550.39 z M571.989,577.08 C569.179,577.08 566.499,577.64 564.059,578.64 C556.509,581.761 551.19,589.2 551.19,597.88 C551.19,599.16 551.299,600.399 551.53,601.62 C552.749,608.399 557.269,614.03 563.36,616.81 C565.979,618.011 568.909,618.681 571.989,618.681 C578.499,618.681 584.309,615.69 588.12,611.011 C591.04,607.431 592.79,602.86 592.79,597.88 C592.79,597.36 592.769,596.851 592.719,596.34 C591.95,585.569 582.959,577.08 571.989,577.08 z M575.559,646.64 C575.559,653.67 572.069,659.89 566.719,663.649 C563.829,665.69 560.399,667.011 556.69,667.351 C556.049,667.41 555.409,667.44 554.759,667.44 C553.499,667.44 552.269,667.33 551.069,667.11 C546.04,666.21 541.639,663.511 538.569,659.69 C535.69,656.12 533.959,651.58 533.959,646.64 C533.959,641.78 535.629,637.31 538.429,633.77 C538.929,633.12 539.479,632.5 540.069,631.91 C543.839,628.16 549.03,625.84 554.759,625.84 C556.729,625.84 558.639,626.12 560.45,626.64 C565.839,628.16 570.329,631.79 572.969,636.59 C573.319,639.181 574.149,641.63 575.37,643.83 C575.499,644.75 575.559,645.69 575.559,646.64" fill="url(#Gradient_18)"/>
    <path d="M640.427,543.181 C636.173,542.269 631.973,541.152 627.79,539.956 C626.286,539.533 624.357,539 622.86,538.54 C624.073,538.239 625.498,537.502 626.587,536.91 C627.699,536.309 628.802,535.685 629.896,535.036 C630.979,534.364 632.079,533.731 633.148,533.026 L633.032,532.753 C631.78,533.02 630.559,533.364 629.32,533.667 C628.092,533.995 626.875,534.347 625.667,534.72 C624.458,535.091 622.962,535.542 621.532,536.107 C618.401,537.347 616.842,536.583 615.287,536.083 L609.031,534.026 L605.875,533.026 L604.281,532.55 L603.625,532.377 C603.348,532.261 603.097,532.228 602.917,532.222 C602.863,532.216 602.808,532.217 602.754,532.221 C602.692,532.224 602.647,532.229 602.647,532.229 C601.005,536.048 599.368,539.611 597.375,543.036 C597.076,543.53 595.999,543.749 594.818,543.901 C593.52,544.047 592,544.048 590.822,544.159 C589.645,544.269 588.467,544.403 587.29,544.563 C586.113,544.749 584.935,544.893 583.756,545.116 L583.752,545.413 C584.925,545.663 586.099,545.835 587.273,546.048 C588.446,546.235 589.62,546.397 590.794,546.534 C591.968,546.673 592.901,546.739 594.318,546.873 C595.345,546.831 594.443,547.585 594.144,547.986 C592.997,549.577 591.785,551.116 590.449,552.536 C587.817,555.41 584.853,557.964 581.527,560.037 C578.202,562.116 574.55,563.71 570.667,564.993 C574.761,564.933 578.88,563.897 582.644,562.067 C586.415,560.245 589.826,557.644 592.641,554.537 C594.033,552.97 595.322,551.317 596.459,549.569 C597.567,547.804 598.557,545.977 599.427,544.095 C601.095,540.489 603.272,536.39 603.426,534.026 C605.07,537.47 608.621,543.991 610.524,548.515 C611.553,551.022 612.532,553.549 613.466,556.091 C612.452,557.158 611.492,558.227 610.537,559.29 C609.215,560.77 607.916,562.235 606.596,563.664 C605.274,565.093 603.938,566.489 602.533,567.837 C601.127,569.193 599.659,570.477 598.032,571.814 C600.143,571.62 602.148,570.782 603.949,569.694 C605.751,568.593 607.365,567.213 608.78,565.677 C610.194,564.14 611.499,562.488 612.434,560.638 C614.667,556.222 615.816,562.741 616.66,565.45 C617.374,567.634 618.02,569.84 618.647,572.052 C617.928,572.985 617.221,573.897 616.517,574.78 C615.461,576.107 614.391,577.379 613.273,578.603 C612.156,579.825 610.998,581.003 609.764,582.154 C608.535,583.316 607.23,584.426 605.865,585.69 C607.724,585.561 609.499,584.938 611.125,584.052 C612.75,583.157 614.22,581.976 615.468,580.603 C616.719,579.228 617.876,577.714 618.509,575.982 C620.013,571.87 620.766,579.905 621.514,582.825 C622.943,588.681 624.202,594.589 625.5,600.54 C625.431,594.448 624.802,588.37 623.784,582.355 C623.318,579.468 620.467,572.489 623.167,574.651 C624.347,575.597 625.783,576.197 627.247,576.658 C628.708,577.118 630.269,577.353 631.832,577.26 C633.383,577.159 634.962,576.738 636.224,575.79 C634.68,575.527 633.339,575.265 632.019,574.932 C630.704,574.606 629.425,574.226 628.134,573.825 L621.451,571.481 C620.824,569.057 620.229,566.947 619.489,564.554 C618.691,562.112 615.146,555.412 618.969,558.366 C620.286,559.382 622.117,559.47 623.773,559.698 C625.428,559.927 627.125,559.929 628.789,559.663 C630.447,559.388 632.085,558.856 633.501,557.888 C631.807,557.649 630.257,557.512 628.721,557.328 C627.188,557.155 625.686,556.96 624.175,556.756 L616.093,555.198 C614.946,552.426 613.994,550.226 612.623,547.554 C611.258,544.816 609.904,542.026 608.278,539.159 C607.554,537.884 606.156,535.576 605.114,533.989 C605.949,534.458 606.772,534.879 607.195,535.106 C609.164,536.118 612.428,537.354 614.46,538.238 C616.48,539.158 618.555,539.942 620.631,540.731 C622.719,541.489 624.837,542.165 626.967,542.808 C631.24,544.048 635.62,544.964 640.054,545.469 C644.482,545.97 648.991,546.055 653.385,545.347 C648.976,544.816 644.684,544.093 640.427,543.181" fill="#457C41"/>
    <path d="M550.767,631.688 C557.225,629.077 561.209,637.87 554.752,640.756 C548.295,643.642 540.661,635.774 550.767,631.688" fill="#F2F5CF"/>
    <path d="M561.781,586.343 C565.972,584.78 573.214,592.962 564.188,600.483 C555.162,608.006 552.905,589.651 561.781,586.343" fill="#F2F5CF"/>
    <path d="M544.219,538.124 C551.553,538.79 552.719,552.957 545.719,553.124 C535.539,553.366 536.959,537.464 544.219,538.124" fill="#F2F5CF"/>
    <path d="M592.441,620.203 C591.792,616.698 581.781,620.332 583.614,625.525 C585.95,632.145 593.129,623.921 592.441,620.203" fill="#F2F5CF"/>
    <g clip-path="url(#Clip_3)">
      <path d="M858.726,14.445 C898.766,16.871 934.126,41.323 947.563,79.29 C962.753,124.43 944.223,177.21 909.223,196.29 C878.743,212.9 833.883,206.64 813.233,187.42 L813.243,187.11 C803.333,186.86 792.813,183.22 782.033,175.18 C739.693,143.58 746.713,65.88 796.093,32.54 C811.271,22.282 828.958,15.905 847.272,14.599 C851.081,14.328 854.908,14.496 858.726,14.445 z" fill="url(#Gradient_19)"/>
    </g>
    <path d="M869.473,65.79 C873.098,70.478 875.718,75.947 877.484,81.654 C879.224,87.378 880.136,93.352 880.349,99.338 C880.794,111.332 878.61,123.325 874.66,134.617 C872.633,140.253 870.166,145.732 867.219,150.949 C864.236,156.14 860.845,161.117 856.886,165.619 C852.958,170.141 848.5,174.219 843.553,177.585 C838.599,180.923 833.129,183.544 827.366,184.922 C832.93,182.905 838.083,179.983 842.69,176.392 C847.319,172.827 851.426,168.637 855.092,164.114 C858.729,159.563 861.976,154.701 864.737,149.569 C867.528,144.456 869.908,139.115 871.833,133.616 C873.804,128.133 875.311,122.483 876.366,116.755 C877.45,111.03 877.986,105.207 878.017,99.382 C878.014,87.775 875.673,75.929 869.473,65.79" fill="#C5597B"/>
    <path d="M809.343,56.639 C795.394,50.018 812.331,32.492 844.973,29.54 C875.39,26.789 876.722,37.706 850.473,42.04 C823.079,46.562 835.473,69.04 809.343,56.639" fill="#EFADB0"/>
    <g clip-path="url(#Clip_4)">
      <path d="M885.313,276.943 C934.132,276.993 956.201,330.669 952.281,372.943 C948.141,408.593 912.641,454.913 877.441,440.373 C874.911,439.333 868.141,439.163 864.931,438.203 C834.622,450.423 819.881,459.153 785.931,425.293 C759.241,398.673 746.241,313.613 794.471,291.413 C819.341,279.973 832.091,292.873 841.141,293.583 L841.471,293.463 C843.591,299.093 845.211,303.053 845.332,303.323 C847.251,303.413 849.151,303.303 850.981,302.973 L850.981,302.963 C850.931,302.683 850.231,298.193 849.301,292.123 L850.171,291.993 C855.201,290.013 858.931,286.583 863.201,283.543 C866.071,283.763 869.122,283.483 871.971,282.243 C874.251,281.253 876.211,279.523 877.901,277.363 L878.091,277.513 C882.121,277.047 879.717,277.28 885.313,276.943 z" fill="url(#Gradient_20)"/>
    </g>
    <path d="M847.142,298.746 C841.642,294.83 829.07,291.329 829.808,298.83 C830.308,303.913 840.061,304.617 848.516,304.163 C854.766,303.827 866.155,299.364 863.988,293.614 C860.694,284.874 847.142,298.746 847.142,298.746" fill="#B0282E"/>
    <path d="M863.201,283.543 C856.372,283.023 850.521,279.663 850.521,279.663 C850.521,279.663 849.122,281.563 847.841,283.233 C846.781,284.613 845.801,285.833 845.761,285.663 C845.051,282.023 846.881,276.333 846.881,276.333 C845.611,272.453 845.161,269.123 845.372,266.263 L845.372,266.253 C846.981,244.333 887.261,250.663 887.261,250.663 C887.261,250.663 885.191,268.023 877.901,277.363 C876.211,279.523 874.251,281.253 871.971,282.243 C869.122,283.483 866.071,283.763 863.201,283.543" fill="#5CB245"/>
    <path d="M847.931,283.273 C848.411,286.383 848.872,289.413 849.301,292.123 C850.231,298.193 850.931,302.683 850.981,302.963 C850.981,302.973 850.981,302.973 850.981,302.973 C849.151,303.303 847.251,303.413 845.332,303.323 C845.211,303.053 843.591,299.093 841.471,293.463 C836.042,279.043 827.351,253.613 832.391,250.793 C839.171,246.993 843.261,250.413 844.261,258.413 C844.471,260.033 844.861,262.823 845.372,266.253 L845.372,266.263 C845.161,269.123 845.611,272.453 846.881,276.333 C846.881,276.333 845.051,282.023 845.761,285.663 C845.801,285.833 846.781,284.613 847.841,283.233 L847.931,283.273" fill="#3E281F"/>
    <path d="M811.975,309.983 C811.094,301.401 793.586,300.082 793.71,313.064 C793.93,336.17 823.344,334.901 836.767,329.62 C849.06,324.783 851.805,318.125 836.181,320.326 C822.795,322.211 812.732,317.367 811.975,309.983" fill="#E67B73"/>
    <path d="M851.975,276.246 C853.16,273.238 854.971,270.522 857.024,268.032 C859.076,265.532 861.458,263.29 864.081,261.361 C866.705,259.437 869.583,257.829 872.644,256.707 C875.689,255.563 878.918,254.889 882.142,254.913 C879.156,256.117 876.319,257.369 873.608,258.84 C870.907,260.322 868.326,261.966 865.854,263.779 C860.894,267.405 856.408,271.631 851.975,276.246" fill="#3F8C44"/>
    <path d="M100.052,505.978 C100.052,505.978 105.222,508.628 106.603,512.148 C106.603,512.158 106.603,512.158 106.603,512.158 C104.833,520.889 104.073,528.219 104.073,528.219 C105.333,529.168 106.982,529.728 108.672,529.858 L108.672,529.849 C108.672,529.849 112.163,517.528 116.933,507.809 C150.652,521.118 151.013,553.868 150.382,580.769 C158.583,619.438 152.243,670.469 111.302,680.818 C80.493,688.608 31.593,679.578 10.263,646.478 C-11.028,613.438 2.212,569.019 37.013,549.559 C48.123,535.918 60.743,520.719 74.422,511.778 C82.493,513.208 91.232,511.969 100.052,505.978 z" fill="url(#Gradient_21)"/>
    <path d="M102.802,498.948 C108.302,499.458 107.482,507.408 106.892,510.728 C106.892,510.728 106.892,510.738 106.892,510.748 C106.792,511.219 106.693,511.688 106.603,512.148 C105.222,508.628 100.052,505.978 100.052,505.978 C91.232,511.969 82.493,513.208 74.422,511.778 C51.843,507.798 34.363,483.028 34.363,483.028 C34.363,483.028 46.582,479.059 73.002,475.429 C99.413,471.798 102.802,498.948 102.802,498.948" fill="#47AD47"/>
    <path d="M95.388,498.894 C94.136,497.222 92.577,495.89 90.921,494.747 C89.274,493.592 87.49,492.666 85.664,491.866 C83.819,491.103 81.938,490.426 79.996,489.936 C78.063,489.417 76.097,488.998 74.102,488.716 C70.121,488.104 66.065,487.812 61.975,487.711 C57.881,487.607 53.761,487.693 49.572,487.686 C53.578,486.458 57.716,485.71 61.908,485.37 C66.097,485.034 70.354,485.089 74.565,485.753 C76.663,486.11 78.755,486.565 80.797,487.219 C82.827,487.904 84.836,488.696 86.703,489.779 C88.582,490.826 90.332,492.118 91.863,493.624 C93.351,495.155 94.711,496.886 95.388,498.894" fill="#357741"/>
    <path d="M107.456,524.861 C107.456,524.861 104.449,520.017 100.748,522.028 C96.915,524.111 102.875,529.189 106.458,529.939 C110.041,530.689 116.202,530.368 115.373,527.153 C114.762,524.785 113.458,523.873 107.456,524.861" fill="#968039"/>
    <path d="M116.933,507.809 C112.163,517.528 108.672,529.849 108.672,529.849 L108.672,529.858 C106.982,529.728 105.333,529.168 104.073,528.219 C104.073,528.219 104.833,520.889 106.603,512.158 C106.603,512.158 106.603,512.158 106.603,512.148 C106.623,512.059 106.752,511.538 106.892,510.748 C106.892,510.738 106.892,510.728 106.892,510.728 C108.382,503.698 110.502,496.009 113.373,490.608 C113.373,490.608 113.613,478.728 127.433,487.398 C136.593,493.148 126.802,494.488 122.773,498.679 C120.722,500.809 118.732,504.128 116.933,507.809" fill="#6A4E32"/>
    <path d="M131.174,631.282 C131.174,632.571 130.279,633.616 129.174,633.616 C128.07,633.616 127.174,632.571 127.174,631.282 C127.174,629.994 128.07,628.949 129.174,628.949 C130.279,628.949 131.174,629.994 131.174,631.282" fill="#EFD474"/>
    <path d="M99.873,620.361 C99.873,621.65 98.977,622.695 97.873,622.695 C96.768,622.695 95.873,621.65 95.873,620.361 C95.873,619.073 96.768,618.028 97.873,618.028 C98.977,618.028 99.873,619.073 99.873,620.361" fill="#EFD474"/>
    <path d="M113.873,640.528 C113.873,641.817 112.977,642.862 111.873,642.862 C110.768,642.862 109.873,641.817 109.873,640.528 C109.873,639.24 110.768,638.195 111.873,638.195 C112.977,638.195 113.873,639.24 113.873,640.528" fill="#EFD474"/>
    <path d="M141.373,609.277 C141.373,610.566 140.477,611.611 139.373,611.611 C138.268,611.611 137.373,610.566 137.373,609.277 C137.373,607.989 138.268,606.944 139.373,606.944 C140.477,606.944 141.373,607.989 141.373,609.277" fill="#EFD474"/>
    <path d="M116.373,549.444 C116.373,550.733 115.477,551.778 114.373,551.778 C113.268,551.778 112.373,550.733 112.373,549.444 C112.373,548.156 113.268,547.111 114.373,547.111 C115.477,547.111 116.373,548.156 116.373,549.444" fill="#A28638"/>
    <path d="M134.04,572.112 C134.04,573.401 133.144,574.446 132.04,574.446 C130.935,574.446 130.04,573.401 130.04,572.112 C130.04,570.824 130.935,569.779 132.04,569.779 C133.144,569.779 134.04,570.824 134.04,572.112" fill="#A28638"/>
    <path d="M139.706,586.111 C139.706,587.4 138.81,588.445 137.706,588.445 C136.601,588.445 135.706,587.4 135.706,586.111 C135.706,584.823 136.601,583.778 137.706,583.778 C138.81,583.778 139.706,584.823 139.706,586.111" fill="#A28638"/>
    <path d="M104.373,601.445 C104.373,602.734 103.477,603.779 102.373,603.779 C101.268,603.779 100.373,602.734 100.373,601.445 C100.373,600.157 101.268,599.112 102.373,599.112 C103.477,599.112 104.373,600.157 104.373,601.445" fill="#A28638"/>
    <path d="M118.373,585.445 C118.373,586.734 117.477,587.779 116.373,587.779 C115.268,587.779 114.373,586.734 114.373,585.445 C114.373,584.157 115.268,583.112 116.373,583.112 C117.477,583.112 118.373,584.157 118.373,585.445" fill="#A28638"/>
    <path d="M107.04,569.779 C107.04,571.068 106.144,572.113 105.04,572.113 C103.935,572.113 103.04,571.068 103.04,569.779 C103.04,568.491 103.935,567.446 105.04,567.446 C106.144,567.446 107.04,568.491 107.04,569.779" fill="#A28638"/>
    <path d="M133.392,537.792 C133.392,539.081 132.497,540.126 131.392,540.126 C130.288,540.126 129.392,539.081 129.392,537.792 C129.392,536.504 130.288,535.459 131.392,535.459 C132.497,535.459 133.392,536.504 133.392,537.792" fill="#A28638"/>
    <path d="M86.373,632.445 C86.373,633.734 85.477,634.779 84.373,634.779 C83.268,634.779 82.373,633.734 82.373,632.445 C82.373,631.157 83.268,630.112 84.373,630.112 C85.477,630.112 86.373,631.157 86.373,632.445" fill="#EFD474"/>
    <path d="M63.373,634.778 C63.373,636.067 62.477,637.112 61.373,637.112 C60.268,637.112 59.373,636.067 59.373,634.778 C59.373,633.49 60.268,632.445 61.373,632.445 C62.477,632.445 63.373,633.49 63.373,634.778" fill="#EFD474"/>
    <path d="M105.206,657.278 C105.206,658.567 104.31,659.612 103.206,659.612 C102.101,659.612 101.206,658.567 101.206,657.278 C101.206,655.99 102.101,654.945 103.206,654.945 C104.31,654.945 105.206,655.99 105.206,657.278" fill="#EFD474"/>
    <path d="M130.124,657.053 C130.124,658.342 129.228,659.387 128.124,659.387 C127.019,659.387 126.124,658.342 126.124,657.053 C126.124,655.765 127.019,654.72 128.124,654.72 C129.228,654.72 130.124,655.765 130.124,657.053" fill="#EFD474"/>
    <path d="M87.319,663.321 C87.319,664.61 86.423,665.655 85.319,665.655 C84.214,665.655 83.319,664.61 83.319,663.321 C83.319,662.033 84.214,660.988 85.319,660.988 C86.423,660.988 87.319,662.033 87.319,663.321" fill="#EFD474"/>
    <path d="M121.623,619.528 C121.623,620.817 120.727,621.862 119.623,621.862 C118.518,621.862 117.623,620.817 117.623,619.528 C117.623,618.24 118.518,617.195 119.623,617.195 C120.727,617.195 121.623,618.24 121.623,619.528" fill="#EFD474"/>
    <path d="M56.707,654.777 C56.707,656.066 55.811,657.111 54.706,657.111 C53.602,657.111 52.706,656.066 52.706,654.777 C52.706,653.489 53.602,652.444 54.706,652.444 C55.811,652.444 56.707,653.489 56.707,654.777" fill="#EFD474"/>
    <path d="M33.706,633.444 C33.706,634.733 32.811,635.778 31.706,635.778 C30.602,635.778 29.707,634.733 29.707,633.444 C29.707,632.156 30.602,631.111 31.706,631.111 C32.811,631.111 33.706,632.156 33.706,633.444" fill="#EFD474"/>
    <path d="M41.347,562.157 C52.123,554.696 53.242,553.053 60.41,546.071 C66.004,540.622 70.751,542.823 68.178,559.448 C65.753,575.108 64.168,594.77 44.539,587.925 C26.06,581.481 33.732,567.43 41.347,562.157" fill="#D8B664"/>
    <path d="M322.627,535.328 C322.578,535.048 321.877,530.559 320.948,524.488 L321.818,524.358 C326.847,522.378 330.578,518.948 334.847,515.908 C337.717,516.128 340.768,515.849 343.618,514.608 C345.898,513.618 347.858,511.889 349.547,509.728 L349.738,509.878 C402.307,502.838 429.097,560.698 423.927,605.309 C419.788,640.958 384.288,687.278 349.087,672.738 C346.557,671.698 339.788,671.528 336.578,670.568 C306.268,682.788 291.528,691.519 257.578,657.658 C230.887,631.038 217.887,545.978 266.118,523.778 C290.988,512.338 303.738,525.238 312.788,525.948 L313.118,525.828 C315.238,531.458 316.858,535.418 316.978,535.688 C318.898,535.778 320.797,535.668 322.627,535.338 C322.627,535.338 322.627,535.338 322.627,535.328 z" fill="url(#Gradient_22)"/>
    <path d="M318.789,531.111 C313.289,527.195 300.716,523.694 301.455,531.195 C301.955,536.278 311.708,536.982 320.163,536.528 C326.413,536.192 337.801,531.729 335.634,525.979 C332.34,517.239 318.789,531.111 318.789,531.111" fill="#81B140"/>
    <path d="M334.847,515.908 C328.018,515.389 322.167,512.028 322.167,512.028 C322.167,512.028 320.768,513.929 319.488,515.599 C318.427,516.978 317.448,518.198 317.408,518.028 C316.698,514.389 318.528,508.698 318.528,508.698 C317.257,504.818 316.807,501.488 317.018,498.628 L317.018,498.618 C318.627,476.698 358.908,483.028 358.908,483.028 C358.908,483.028 356.837,500.389 349.547,509.728 C347.858,511.889 345.898,513.618 343.618,514.608 C340.768,515.849 337.717,516.128 334.847,515.908" fill="#5CB245"/>
    <path d="M319.578,515.639 C320.057,518.748 320.518,521.778 320.948,524.488 C321.877,530.559 322.578,535.048 322.627,535.328 C322.627,535.338 322.627,535.338 322.627,535.338 C320.797,535.668 318.898,535.778 316.978,535.688 C316.858,535.418 315.238,531.458 313.118,525.828 C307.688,511.408 298.998,485.978 304.038,483.158 C310.818,479.358 314.908,482.778 315.908,490.778 C316.118,492.398 316.507,495.188 317.018,498.618 L317.018,498.628 C316.807,501.488 317.257,504.818 318.528,508.698 C318.528,508.698 316.698,514.389 317.408,518.028 C317.448,518.198 318.427,516.978 319.488,515.599 L319.578,515.639" fill="#3E281F"/>
    <path d="M283.622,542.349 C282.741,533.767 265.233,532.447 265.357,545.43 C265.577,568.535 294.991,567.267 308.414,561.985 C320.707,557.148 323.452,550.49 307.828,552.691 C294.442,554.576 284.378,549.732 283.622,542.349" fill="#C1D880"/>
    <path d="M323.622,508.611 C324.806,505.603 326.618,502.888 328.67,500.397 C330.722,497.897 333.104,495.655 335.727,493.727 C338.351,491.803 341.23,490.194 344.291,489.072 C347.335,487.929 350.565,487.254 353.789,487.278 C350.802,488.482 347.965,489.734 345.254,491.205 C342.553,492.687 339.972,494.331 337.5,496.145 C332.541,499.77 328.054,503.996 323.622,508.611" fill="#3F8C44"/>
  </g>
</svg>
